<svg width="421" height="81" viewBox="0 0 421 81" fill="none" xmlns="http://www.w3.org/2000/svg">
<path d="M92.4417 65.384C90.9484 65.384 89.7324 64.936 88.7937 64.04C87.8977 63.1013 87.4497 61.8853 87.4497 60.392V24.552C87.4497 23.0587 87.8551 21.9067 88.6657 21.096C89.4764 20.2853 90.6284 19.88 92.1217 19.88H114.138C115.759 19.88 116.954 20.2 117.722 20.84C118.49 21.48 118.874 22.4827 118.874 23.848C118.874 25.1707 118.49 26.152 117.722 26.792C116.954 27.432 115.759 27.752 114.138 27.752H97.3057V38.12H112.858C114.479 38.12 115.674 38.44 116.442 39.08C117.21 39.72 117.594 40.7227 117.594 42.088C117.594 43.4107 117.21 44.392 116.442 45.032C115.674 45.672 114.479 45.992 112.858 45.992H97.3057V60.392C97.3057 61.928 96.8577 63.144 95.9617 64.04C95.1084 64.936 93.9351 65.384 92.4417 65.384ZM148.538 55.656C149.391 55.656 150.074 55.9973 150.586 56.68C151.14 57.3627 151.418 58.2373 151.418 59.304C151.418 60.0293 151.204 60.712 150.778 61.352C150.351 61.9493 149.754 62.4613 148.986 62.888C147.535 63.656 145.85 64.296 143.93 64.808C142.01 65.2773 140.239 65.512 138.618 65.512C135.204 65.512 132.218 64.8507 129.658 63.528C127.14 62.2053 125.199 60.328 123.834 57.896C122.468 55.4213 121.786 52.52 121.786 49.192C121.786 45.992 122.447 43.1547 123.77 40.68C125.092 38.2053 126.927 36.2853 129.274 34.92C131.62 33.512 134.287 32.808 137.274 32.808C140.132 32.808 142.628 33.448 144.762 34.728C146.938 35.9653 148.623 37.7573 149.818 40.104C151.012 42.408 151.61 45.1173 151.61 48.232C151.61 49.1707 151.375 49.896 150.906 50.408C150.479 50.8773 149.86 51.112 149.05 51.112H131.13C131.428 53.6293 132.196 55.464 133.434 56.616C134.671 57.7253 136.442 58.28 138.746 58.28C139.983 58.28 141.092 58.1307 142.074 57.832C143.055 57.5333 144.143 57.128 145.338 56.616C145.935 56.36 146.511 56.1467 147.066 55.976C147.62 55.7627 148.111 55.656 148.538 55.656ZM137.53 39.464C135.695 39.464 134.223 40.0613 133.114 41.256C132.004 42.408 131.343 44.0933 131.13 46.312H143.482C143.354 44.0507 142.778 42.344 141.754 41.192C140.772 40.04 139.364 39.464 137.53 39.464ZM183.303 55.656C184.156 55.656 184.839 55.9973 185.351 56.68C185.905 57.3627 186.183 58.2373 186.183 59.304C186.183 60.0293 185.969 60.712 185.543 61.352C185.116 61.9493 184.519 62.4613 183.751 62.888C182.3 63.656 180.615 64.296 178.695 64.808C176.775 65.2773 175.004 65.512 173.383 65.512C169.969 65.512 166.983 64.8507 164.423 63.528C161.905 62.2053 159.964 60.328 158.599 57.896C157.233 55.4213 156.551 52.52 156.551 49.192C156.551 45.992 157.212 43.1547 158.535 40.68C159.857 38.2053 161.692 36.2853 164.039 34.92C166.385 33.512 169.052 32.808 172.039 32.808C174.897 32.808 177.393 33.448 179.527 34.728C181.703 35.9653 183.388 37.7573 184.583 40.104C185.777 42.408 186.375 45.1173 186.375 48.232C186.375 49.1707 186.14 49.896 185.671 50.408C185.244 50.8773 184.625 51.112 183.815 51.112H165.895C166.193 53.6293 166.961 55.464 168.199 56.616C169.436 57.7253 171.207 58.28 173.511 58.28C174.748 58.28 175.857 58.1307 176.839 57.832C177.82 57.5333 178.908 57.128 180.103 56.616C180.7 56.36 181.276 56.1467 181.831 55.976C182.385 55.7627 182.876 55.656 183.303 55.656ZM172.295 39.464C170.46 39.464 168.988 40.0613 167.879 41.256C166.769 42.408 166.108 44.0933 165.895 46.312H178.247C178.119 44.0507 177.543 42.344 176.519 41.192C175.537 40.04 174.129 39.464 172.295 39.464ZM219.668 19.56C221.161 19.56 222.356 19.9653 223.252 20.776C224.19 21.5867 224.66 22.6533 224.66 23.976V60.84C224.66 62.2053 224.212 63.3147 223.316 64.168C222.462 64.9787 221.31 65.384 219.86 65.384C218.409 65.384 217.236 64.9787 216.34 64.168C215.486 63.3147 215.06 62.2053 215.06 60.84V60.328C214.121 61.9493 212.777 63.2293 211.028 64.168C209.321 65.064 207.38 65.512 205.204 65.512C202.516 65.512 200.105 64.8293 197.972 63.464C195.881 62.056 194.238 60.1147 193.044 57.64C191.892 55.1227 191.316 52.2427 191.316 49C191.316 45.7573 191.892 42.92 193.044 40.488C194.238 38.0133 195.881 36.1147 197.972 34.792C200.062 33.4693 202.473 32.808 205.204 32.808C207.337 32.808 209.257 33.256 210.964 34.152C212.713 35.048 214.057 36.3067 214.996 37.928V23.784C214.996 22.504 215.422 21.48 216.276 20.712C217.129 19.944 218.26 19.56 219.668 19.56ZM208.02 58.152C210.281 58.152 212.009 57.384 213.204 55.848C214.441 54.2693 215.06 52.0293 215.06 49.128C215.06 46.2267 214.441 44.008 213.204 42.472C212.009 40.936 210.281 40.168 208.02 40.168C205.758 40.168 204.009 40.936 202.772 42.472C201.534 43.9653 200.916 46.1413 200.916 49C200.916 51.9013 201.534 54.1627 202.772 55.784C204.009 57.3627 205.758 58.152 208.02 58.152Z" fill="#ED500D"/>
<path d="M275.558 58.92C275.899 59.688 276.07 60.3707 276.07 60.968C276.07 62.1627 275.579 63.1867 274.598 64.04C273.659 64.8507 272.571 65.256 271.334 65.256C270.523 65.256 269.755 65.0427 269.03 64.616C268.304 64.1467 267.75 63.464 267.366 62.568L263.974 55.016H242.278L238.886 62.568C238.502 63.464 237.947 64.1467 237.222 64.616C236.539 65.0427 235.771 65.256 234.918 65.256C233.68 65.256 232.571 64.8507 231.59 64.04C230.608 63.1867 230.118 62.1627 230.118 60.968C230.118 60.3707 230.288 59.688 230.63 58.92L247.91 22.632C248.379 21.608 249.083 20.84 250.022 20.328C250.96 19.7733 251.963 19.496 253.03 19.496C254.139 19.496 255.163 19.7733 256.102 20.328C257.04 20.8827 257.766 21.6507 258.278 22.632L275.558 58.92ZM245.67 47.464H260.582L253.158 30.824L245.67 47.464ZM317.668 19.56C319.162 19.56 320.356 20.008 321.252 20.904C322.148 21.8 322.596 22.9947 322.596 24.488V60.392C322.596 61.8853 322.148 63.1013 321.252 64.04C320.356 64.936 319.162 65.384 317.668 65.384C316.175 65.384 314.98 64.936 314.084 64.04C313.231 63.144 312.804 61.928 312.804 60.392V46.056H292.004V60.392C292.004 61.8853 291.556 63.1013 290.66 64.04C289.764 64.936 288.591 65.384 287.14 65.384C285.647 65.384 284.452 64.936 283.556 64.04C282.66 63.144 282.212 61.928 282.212 60.392V24.488C282.212 22.9947 282.66 21.8 283.556 20.904C284.452 20.008 285.647 19.56 287.14 19.56C288.634 19.56 289.807 20.008 290.66 20.904C291.556 21.8 292.004 22.9947 292.004 24.488V38.12H312.804V24.488C312.804 22.9947 313.231 21.8 314.084 20.904C314.98 20.008 316.175 19.56 317.668 19.56ZM356.675 55.656C357.529 55.656 358.211 55.9973 358.723 56.68C359.278 57.3627 359.555 58.2373 359.555 59.304C359.555 60.0293 359.342 60.712 358.915 61.352C358.489 61.9493 357.891 62.4613 357.123 62.888C355.673 63.656 353.987 64.296 352.067 64.808C350.147 65.2773 348.377 65.512 346.755 65.512C343.342 65.512 340.355 64.8507 337.795 63.528C335.278 62.2053 333.337 60.328 331.971 57.896C330.606 55.4213 329.923 52.52 329.923 49.192C329.923 45.992 330.585 43.1547 331.907 40.68C333.23 38.2053 335.065 36.2853 337.411 34.92C339.758 33.512 342.425 32.808 345.411 32.808C348.27 32.808 350.766 33.448 352.899 34.728C355.075 35.9653 356.761 37.7573 357.955 40.104C359.15 42.408 359.747 45.1173 359.747 48.232C359.747 49.1707 359.513 49.896 359.043 50.408C358.617 50.8773 357.998 51.112 357.187 51.112H339.267C339.566 53.6293 340.334 55.464 341.571 56.616C342.809 57.7253 344.579 58.28 346.883 58.28C348.121 58.28 349.23 58.1307 350.211 57.832C351.193 57.5333 352.281 57.128 353.475 56.616C354.073 56.36 354.649 56.1467 355.203 55.976C355.758 55.7627 356.249 55.656 356.675 55.656ZM345.667 39.464C343.833 39.464 342.361 40.0613 341.251 41.256C340.142 42.408 339.481 44.0933 339.267 46.312H351.619C351.491 44.0507 350.915 42.344 349.891 41.192C348.91 40.04 347.502 39.464 345.667 39.464ZM371.088 65.384C369.68 65.384 368.507 65 367.568 64.232C366.672 63.464 366.224 62.3333 366.224 60.84V24.104C366.224 22.6107 366.672 21.48 367.568 20.712C368.507 19.944 369.68 19.56 371.088 19.56C372.454 19.56 373.584 19.944 374.48 20.712C375.419 21.48 375.888 22.6107 375.888 24.104V60.84C375.888 62.3333 375.419 63.464 374.48 64.232C373.584 65 372.454 65.384 371.088 65.384ZM403.383 32.808C406.071 32.808 408.46 33.512 410.551 34.92C412.684 36.2853 414.327 38.2267 415.479 40.744C416.673 43.2187 417.271 46.0773 417.271 49.32C417.271 52.5627 416.673 55.4213 415.479 57.896C414.327 60.328 412.705 62.2053 410.615 63.528C408.524 64.8507 406.113 65.512 403.383 65.512C401.249 65.512 399.308 65.0853 397.559 64.232C395.852 63.336 394.529 62.0987 393.591 60.52V72.616C393.591 73.896 393.164 74.92 392.311 75.688C391.457 76.456 390.327 76.84 388.919 76.84C387.425 76.84 386.209 76.4347 385.271 75.624C384.375 74.8133 383.927 73.7467 383.927 72.424V37.48C383.927 36.1147 384.353 35.0267 385.207 34.216C386.103 33.3627 387.276 32.936 388.727 32.936C390.177 32.936 391.329 33.3627 392.183 34.216C393.036 35.0267 393.463 36.1147 393.463 37.48V37.992C394.401 36.3707 395.745 35.112 397.495 34.216C399.244 33.2773 401.207 32.808 403.383 32.808ZM400.567 58.152C402.828 58.152 404.577 57.4053 405.815 55.912C407.052 54.376 407.671 52.1787 407.671 49.32C407.671 46.4187 407.052 44.1787 405.815 42.6C404.577 40.9787 402.828 40.168 400.567 40.168C398.305 40.168 396.556 40.9573 395.319 42.536C394.081 44.072 393.463 46.2907 393.463 49.192C393.463 52.0507 394.081 54.2693 395.319 55.848C396.556 57.384 398.305 58.152 400.567 58.152Z" fill="#424242"/>
<path d="M39.2182 42.1132C39.2182 42.1132 27.5757 34.8554 27.5757 26.0424C27.5759 24.4847 28.0608 22.9752 28.9478 21.7705C29.8348 20.5658 31.0693 19.7403 32.4413 19.4343C33.8133 19.1283 35.2382 19.3607 36.4736 20.0921C37.7091 20.8234 38.6789 22.0084 39.2182 23.4458L39.2182 23.4458C39.7574 22.0084 40.7272 20.8234 41.9627 20.0921C43.1982 19.3608 44.623 19.1283 45.9951 19.4343C47.3671 19.7403 48.6015 20.5658 49.4886 21.7705C50.3756 22.9752 50.8604 24.4847 50.8607 26.0424C50.8607 34.8554 39.2182 42.1132 39.2182 42.1132Z" fill="#ED500D"/>
<path d="M15.3746 20.7638C17.7072 20.7706 19.523 22.563 19.7901 25.1206L19.796 25.1601C19.8086 25.2324 19.824 25.3454 19.8301 25.4783C19.8849 27.0287 19.9201 29.2925 19.9538 31.4764C19.9714 32.6421 19.9892 33.8335 20.0101 34.9141C21.6223 34.5714 23.2472 35.0614 24.2352 36.3057C25.7592 38.2182 27.5635 39.8477 29.4777 41.5718C30.4883 42.4817 31.5301 43.4242 32.5203 44.4035C34.9464 46.8054 36.0046 49.6455 35.6644 52.8425C35.5101 54.3058 35.3475 55.766 35.1891 57.2278C34.9527 59.3812 34.7085 61.6087 34.4871 63.798C34.4553 64.1104 34.3608 65.0665 33.5224 65.718C32.6839 66.3694 31.6742 66.2808 31.3406 66.2501L30.477 66.1738C28.17 65.9666 25.784 65.7557 23.4475 65.6635C22.6485 65.6323 21.501 65.4924 20.8084 64.6518C20.0517 63.7337 20.3144 62.5556 20.4002 62.17C20.7767 60.4792 20.2226 59.2609 18.5524 58.0964C15.8433 56.2073 13.849 54.6377 12.0886 53.0035C10.961 51.9568 10.1368 50.8177 9.61382 49.5643C9.16112 48.4794 8.9342 47.3105 8.92127 46.0462C8.89668 43.166 9.10355 40.3252 9.42295 36.9432L9.50369 36.0893C9.8341 32.59 10.1725 28.9749 10.576 25.4142C10.8949 22.5801 12.7805 20.7554 15.3746 20.7638ZM13.6406 25.5789C13.24 29.1127 12.9012 32.7184 12.5722 36.2041L12.4914 37.058C12.1795 40.3565 11.9794 43.1205 12.0017 45.8857C12.0183 47.8766 12.7518 49.4742 14.3098 50.9188C15.9716 52.4604 17.8712 53.9551 20.4701 55.7658C21.7728 56.6747 22.6726 57.716 23.1598 58.8838C23.6321 60.0157 23.7191 61.2631 23.4185 62.6207C23.4068 62.677 23.3976 62.7225 23.3914 62.7669C23.477 62.7777 23.586 62.7856 23.7299 62.7925C26.1485 62.8872 28.5758 63.1042 30.9229 63.3146L31.4541 63.3629C31.6673 61.2638 31.9008 59.1373 32.1272 57.078C32.2868 55.619 32.4464 54.16 32.6029 52.7023C32.8572 50.3129 32.0823 48.2615 30.2329 46.431C29.2888 45.4945 28.2706 44.5747 27.2836 43.6876C25.3736 41.9651 23.3962 40.1826 21.7348 38.0931C21.2681 37.5067 20.5147 37.644 20.0106 37.9393C19.3937 38.3023 19.4922 39.02 19.6892 39.5597C19.7373 39.6919 19.8003 39.8343 19.8648 39.9889C19.8924 40.0551 19.9189 40.1186 19.9496 40.1837C20.1679 40.5634 23.3515 46.132 25.0259 48.996C25.0857 49.0719 25.1518 49.1711 25.212 49.2984C25.2177 49.3122 25.2235 49.326 25.2293 49.3398C25.5253 50.0493 25.1534 50.8813 24.3793 51.2138C23.6686 51.5209 22.865 51.3014 22.4748 50.7295C22.4379 50.6831 22.3909 50.6213 22.3473 50.5422C21.3861 48.8973 20.0384 46.5629 19.0962 44.9297C18.5569 43.9922 18.0701 43.1465 17.7232 42.5347C17.548 42.2246 17.4053 41.9757 17.3082 41.8019C17.2313 41.6684 17.1575 41.5336 17.0999 41.3956C17.0987 41.3928 17.0987 41.3928 17.0976 41.3901L17.0915 41.3925C17.0616 41.3207 17.0316 41.249 16.9987 41.1784C16.9641 41.0956 16.9265 41.014 16.892 40.9311C16.8482 40.8262 16.8051 40.7146 16.7609 40.6002C16.2829 39.2773 16.3805 38.0075 16.9775 36.9887C16.9327 35.5213 16.9035 33.5676 16.8758 31.6682C16.8442 29.506 16.8083 27.2747 16.7549 25.7528L16.7494 25.7227C16.7396 25.6655 16.7328 25.607 16.726 25.5485C16.608 24.4294 15.9887 23.6463 15.2198 23.6449C14.0947 23.6347 13.7393 24.692 13.6406 25.5789Z" fill="#424242"/>
<path d="M64.5949 20.7638C62.2623 20.7706 60.4465 22.563 60.1794 25.1206L60.1734 25.1601C60.1609 25.2324 60.1455 25.3454 60.1394 25.4783C60.0846 27.0287 60.0494 29.2925 60.0157 31.4764C59.9981 32.6421 59.9803 33.8335 59.9594 34.9141C58.3472 34.5714 56.7223 35.0614 55.7343 36.3057C54.2102 38.2182 52.406 39.8477 50.4917 41.5718C49.4812 42.4817 48.4394 43.4242 47.4492 44.4035C45.0231 46.8054 43.9649 49.6455 44.3051 52.8425C44.4594 54.3058 44.622 55.766 44.7804 57.2278C45.0168 59.3812 45.261 61.6087 45.4824 63.798C45.5142 64.1104 45.6087 65.0665 46.4471 65.718C47.2855 66.3694 48.2953 66.2808 48.6289 66.2501L49.4925 66.1738C51.7994 65.9666 54.1855 65.7557 56.522 65.6635C57.321 65.6323 58.4684 65.4924 59.1611 64.6518C59.9178 63.7337 59.6551 62.5556 59.5693 62.17C59.1927 60.4792 59.7469 59.2609 61.4171 58.0964C64.1262 56.2073 66.1205 54.6377 67.8809 53.0035C69.0084 51.9568 69.8327 50.8177 70.3557 49.5643C70.8084 48.4794 71.0353 47.3105 71.0482 46.0462C71.0728 43.166 70.8659 40.3252 70.5465 36.9432L70.4658 36.0893C70.1354 32.59 69.797 28.9749 69.3935 25.4142C69.0746 22.5801 67.189 20.7554 64.5949 20.7638ZM66.3289 25.5789C66.7295 29.1127 67.0683 32.7184 67.3973 36.2041L67.478 37.058C67.79 40.3565 67.9901 43.1205 67.9678 45.8857C67.9512 47.8766 67.2176 49.4742 65.6597 50.9188C63.9978 52.4604 62.0982 53.9551 59.4993 55.7658C58.1966 56.6747 57.2969 57.716 56.8097 58.8838C56.3374 60.0157 56.2504 61.2631 56.551 62.6207C56.5627 62.677 56.5719 62.7225 56.5781 62.7669C56.4925 62.7777 56.3835 62.7856 56.2396 62.7925C53.821 62.8872 51.3937 63.1042 49.0466 63.3146L48.5154 63.3629C48.3021 61.2638 48.0686 59.1373 47.8423 57.078C47.6827 55.619 47.5231 54.16 47.3666 52.7023C47.1123 50.3129 47.8872 48.2615 49.7366 46.431C50.6807 45.4945 51.6989 44.5747 52.6859 43.6876C54.5959 41.9651 56.5733 40.1826 58.2347 38.0931C58.7014 37.5067 59.4548 37.644 59.9589 37.9393C60.5758 38.3023 60.4772 39.02 60.2802 39.5597C60.2321 39.6919 60.1692 39.8343 60.1047 39.9889C60.0771 40.0551 60.0506 40.1186 60.0199 40.1837C59.8015 40.5634 56.618 46.132 54.9436 48.996C54.8837 49.0719 54.8177 49.1711 54.7575 49.2984C54.7517 49.3122 54.746 49.326 54.7402 49.3398C54.4442 50.0493 54.8161 50.8813 55.5902 51.2138C56.3009 51.5209 57.1044 51.3014 57.4946 50.7295C57.5316 50.6831 57.5785 50.6213 57.6222 50.5422C58.5834 48.8973 59.9311 46.5629 60.8733 44.9297C61.4126 43.9922 61.8994 43.1465 62.2463 42.5347C62.4215 42.2246 62.5641 41.9757 62.6613 41.8019C62.7382 41.6684 62.812 41.5336 62.8696 41.3956C62.8708 41.3928 62.8708 41.3928 62.8719 41.3901L62.878 41.3925C62.9079 41.3207 62.9379 41.249 62.9708 41.1784C63.0054 41.0956 63.043 41.014 63.0775 40.9311C63.1213 40.8262 63.1644 40.7146 63.2086 40.6002C63.6865 39.2773 63.589 38.0075 62.992 36.9887C63.0368 35.5213 63.066 33.5676 63.0937 31.6682C63.1253 29.506 63.1611 27.2747 63.2146 25.7528L63.2201 25.7227C63.2299 25.6655 63.2367 25.607 63.2435 25.5485C63.3615 24.4294 63.9807 23.6463 64.7497 23.6449C65.8748 23.6347 66.2302 24.692 66.3289 25.5789Z" fill="#424242"/>
</svg>
