<?xml version="1.0" encoding="UTF-8"?>
<!DOCTYPE svg PUBLIC "-//W3C//DTD SVG 1.1//EN" "http://www.w3.org/Graphics/SVG/1.1/DTD/svg11.dtd">
<svg xmlns="http://www.w3.org/2000/svg" version="1.1" width="205px" height="162px" style="shape-rendering:geometricPrecision; text-rendering:geometricPrecision; image-rendering:optimizeQuality; fill-rule:evenodd; clip-rule:evenodd" xmlns:xlink="http://www.w3.org/1999/xlink">
<g><path style="opacity:1" fill="#fdfdfe" d="M -0.5,-0.5 C 67.8333,-0.5 136.167,-0.5 204.5,-0.5C 204.5,53.5 204.5,107.5 204.5,161.5C 136.167,161.5 67.8333,161.5 -0.5,161.5C -0.5,107.5 -0.5,53.5 -0.5,-0.5 Z"/></g>
<g><path style="opacity:1" fill="#4b68a9" d="M 138.5,22.5 C 138.702,23.3636 139.036,24.3636 139.5,25.5C 140.852,24.4756 142.185,23.4756 143.5,22.5C 143.607,24.9032 142.607,26.7365 140.5,28C 142.891,28.6914 142.891,29.6914 140.5,31C 141.62,33.3203 143.62,35.4869 146.5,37.5C 150.462,35.1217 154.796,33.7883 159.5,33.5C 160.82,35.6507 162.32,37.6507 164,39.5C 164.728,42.2305 164.562,44.8971 163.5,47.5C 164,47.8333 164.5,48.1667 165,48.5C 168.638,46.8152 172.471,46.1486 176.5,46.5C 176.5,47.5 176.5,48.5 176.5,49.5C 174.5,49.8333 172.5,50.1667 170.5,50.5C 170.5,51.5 170.5,52.5 170.5,53.5C 166.625,53.0845 162.958,53.5845 159.5,55C 162.225,56.4167 164.892,56.9167 167.5,56.5C 166.482,57.8524 165.149,58.8524 163.5,59.5C 164.04,60.7481 164.707,61.9148 165.5,63C 162.179,65.4516 159.679,68.6182 158,72.5C 156.667,73.1667 155.333,73.8333 154,74.5C 153.838,78.4571 155.672,79.4571 159.5,77.5C 160.463,77.9698 160.463,78.6365 159.5,79.5C 157.958,80.1635 156.291,80.8302 154.5,81.5C 154.624,82.1067 154.957,82.44 155.5,82.5C 158.784,82.6811 161.784,83.6811 164.5,85.5C 164.158,86.3382 163.492,86.6716 162.5,86.5C 161.022,86.238 159.689,86.5713 158.5,87.5C 160.657,88.7904 162.99,89.6237 165.5,90C 164.809,91.0674 164.309,92.2341 164,93.5C 161.867,94.4177 159.7,94.5844 157.5,94C 158.623,95.0437 159.956,95.7104 161.5,96C 162.833,96.6667 162.833,97.3333 161.5,98C 168,100.086 174,102.92 179.5,106.5C 179,106.833 178.5,107.167 178,107.5C 173.847,105.647 169.68,104.98 165.5,105.5C 165.331,106.397 164.998,107.397 164.5,108.5C 163.106,106.016 161.606,106.016 160,108.5C 158.715,108.05 157.548,107.383 156.5,106.5C 156.167,106.833 155.833,107.167 155.5,107.5C 157.316,109.118 158.649,111.118 159.5,113.5C 160.251,112.624 160.751,111.624 161,110.5C 164.303,112.397 164.136,114.064 160.5,115.5C 159.228,114.954 157.894,114.621 156.5,114.5C 151.359,116.153 147.192,119.153 144,123.5C 143.316,124.784 143.483,125.951 144.5,127C 142.402,126.016 140.402,126.349 138.5,128C 137.873,130.343 136.873,132.51 135.5,134.5C 134.094,133.332 132.928,133.665 132,135.5C 128.079,133.75 125.079,134.75 123,138.5C 122.667,138.167 122.333,137.833 122,137.5C 119.997,139.801 118.163,139.801 116.5,137.5C 112.182,140.4 110.016,139.067 110,133.5C 109.215,135.286 108.049,136.786 106.5,138C 103.228,139.608 100.228,141.608 97.5,144C 98.1667,145.333 98.8333,146.667 99.5,148C 98.2559,148.456 97.4226,147.956 97,146.5C 96.6924,147.308 96.1924,147.975 95.5,148.5C 94.452,147.617 93.2853,146.95 92,146.5C 88.5928,148.667 85.0928,149.667 81.5,149.5C 77.2164,147.127 75.3831,143.46 76,138.5C 73.8601,137.272 72.1934,135.605 71,133.5C 69,134.167 67.6667,135.5 67,137.5C 64.9676,135.227 62.4676,133.56 59.5,132.5C 58.2011,133.09 57.3678,134.09 57,135.5C 56.4054,134.101 56.5721,132.768 57.5,131.5C 57.0302,130.537 56.3635,130.537 55.5,131.5C 54.7784,131.082 54.2784,130.416 54,129.5C 53.6667,130.167 53.3333,130.833 53,131.5C 52.0138,130.829 50.8471,130.829 49.5,131.5C 49.5952,128.728 50.9285,126.728 53.5,125.5C 52.645,121.897 50.645,118.564 47.5,115.5C 45.0062,118.605 42.0062,119.605 38.5,118.5C 36.5191,118.437 34.8524,119.104 33.5,120.5C 30.2615,116.706 28.7615,112.372 29,107.5C 29.5,107 30,106.5 30.5,106C 27.3032,105.999 24.1365,106.499 21,107.5C 19.5643,107.441 18.231,107.108 17,106.5C 16.3123,105.668 16.479,105.002 17.5,104.5C 19.8867,104.088 21.8867,103.088 23.5,101.5C 26.4465,100.679 29.4465,100.179 32.5,100C 32.9574,99.586 33.2907,99.086 33.5,98.5C 31.604,97.5344 29.604,97.2011 27.5,97.5C 26.6618,97.1583 26.3284,96.4916 26.5,95.5C 27.8734,95.6567 29.2068,95.49 30.5,95C 29.2351,93.6626 28.7351,92.1626 29,90.5C 31.6566,87.8534 33.8232,84.8534 35.5,81.5C 36.7362,80.7542 38.0695,80.4208 39.5,80.5C 39.5,78.8333 39.5,77.1667 39.5,75.5C 37.7376,75.3573 36.0709,75.6906 34.5,76.5C 33.5713,75.3112 33.238,73.9778 33.5,72.5C 35.1992,72.6602 36.8659,72.4935 38.5,72C 35.0497,71.0801 31.7164,69.9134 28.5,68.5C 30.6979,67.8347 33.0312,67.1681 35.5,66.5C 35.3764,65.8933 35.0431,65.56 34.5,65.5C 32.5183,65.0046 30.5183,64.5046 28.5,64C 29.3802,62.6439 29.7135,61.1439 29.5,59.5C 31.2624,59.3573 32.9291,59.6906 34.5,60.5C 35.521,59.9984 35.6877,59.3317 35,58.5C 33.8552,58.3809 32.6885,58.0476 31.5,57.5C 30.2617,57.19 30.2617,56.69 31.5,56C 25.4637,53.77 19.797,50.9366 14.5,47.5C 15.5761,46.3441 16.5761,46.5108 17.5,48C 21.0016,48.282 24.3349,48.4487 27.5,48.5C 27.6691,47.6034 28.0024,46.6034 28.5,45.5C 29.8943,47.984 31.3943,47.984 33,45.5C 34.2853,45.9504 35.452,46.6171 36.5,47.5C 36.8333,47.1667 37.1667,46.8333 37.5,46.5C 35.684,44.8816 34.3507,42.8816 33.5,40.5C 32.7492,41.376 32.2492,42.376 32,43.5C 31.1667,42.6667 30.3333,41.8333 29.5,41C 32.6912,39.9129 36.0245,39.0796 39.5,38.5C 40.3805,37.0295 41.7139,36.1962 43.5,36C 47.6349,34.2392 49.6349,31.0725 49.5,26.5C 51.1992,26.6602 52.8659,26.4935 54.5,26C 55.7234,23.9479 56.7234,21.7812 57.5,19.5C 58.1667,19.8333 58.8333,20.1667 59.5,20.5C 62.7906,19.6182 66.124,18.9516 69.5,18.5C 69.1192,16.0582 69.7859,15.3915 71.5,16.5C 73.5451,14.5255 75.2117,14.5255 76.5,16.5C 77.8333,15.8333 79.1667,15.1667 80.5,14.5C 81.8333,15.5 83.1667,16.5 84.5,17.5C 88.1659,15.4408 91.6659,13.1075 95,10.5C 94.8047,8.87391 94.8047,7.20725 95,5.5C 95.3333,6.16667 95.6667,6.83333 96,7.5C 96.2492,6.37598 96.7492,5.37598 97.5,4.5C 98.6652,5.49114 99.8319,6.49114 101,7.5C 110.906,1.62164 116.573,4.28831 118,15.5C 119.685,17.0175 121.185,18.6841 122.5,20.5C 123.281,19.2713 123.781,17.938 124,16.5C 124.626,18.9913 125.459,18.9913 126.5,16.5C 128.969,19.1026 131.969,20.7692 135.5,21.5C 135.312,19.8967 135.812,18.5634 137,17.5C 137.651,19.235 137.485,20.9017 136.5,22.5C 136.97,23.463 137.637,23.463 138.5,22.5 Z"/></g>
<g><path style="opacity:1" fill="#8295c3" d="M 143.5,22.5 C 142.185,23.4756 140.852,24.4756 139.5,25.5C 139.036,24.3636 138.702,23.3636 138.5,22.5C 138.987,21.5266 139.487,20.5266 140,19.5C 141.419,20.4601 142.919,21.2935 144.5,22C 144.272,22.3988 143.938,22.5654 143.5,22.5 Z"/></g>
<g><path style="opacity:1" fill="#f9f9fc" d="M 101.5,42.5 C 105.846,42.3343 110.179,42.501 114.5,43C 115.467,47.4014 115.8,51.9014 115.5,56.5C 111.818,56.3347 108.152,56.5014 104.5,57C 103.544,60.3936 103.211,63.8936 103.5,67.5C 107.5,67.5 111.5,67.5 115.5,67.5C 115.666,71.8461 115.499,76.1794 115,80.5C 111.27,81.4601 107.437,81.7935 103.5,81.5C 103.666,91.1724 103.5,100.839 103,110.5C 98.2633,111.469 93.43,111.803 88.5,111.5C 88.5,101.5 88.5,91.5 88.5,81.5C 84.8936,81.7892 81.3936,81.4558 78,80.5C 77.501,76.1794 77.3343,71.8461 77.5,67.5C 81.1667,67.5 84.8333,67.5 88.5,67.5C 85.8014,55.2221 90.1348,46.8887 101.5,42.5 Z"/></g>
<g><path style="opacity:1" fill="#b8c3dd" d="M 31.5,57.5 C 32.6885,58.0476 33.8552,58.3809 35,58.5C 35.6877,59.3317 35.521,59.9984 34.5,60.5C 32.9291,59.6906 31.2624,59.3573 29.5,59.5C 30.1667,58.8333 30.8333,58.1667 31.5,57.5 Z"/></g>
<g><path style="opacity:1" fill="#b0bbd9" d="M 34.5,65.5 C 35.0431,65.56 35.3764,65.8933 35.5,66.5C 33.0312,67.1681 30.6979,67.8347 28.5,68.5C 25.2632,67.2898 21.9298,66.2898 18.5,65.5C 18.8333,65.1667 19.1667,64.8333 19.5,64.5C 24.5728,66.2689 29.5728,66.6022 34.5,65.5 Z"/></g>
<g><path style="opacity:1" fill="#9caccf" d="M 159.5,79.5 C 160.043,79.56 160.376,79.8933 160.5,80.5C 158.709,81.1698 157.042,81.8365 155.5,82.5C 154.957,82.44 154.624,82.1067 154.5,81.5C 156.291,80.8302 157.958,80.1635 159.5,79.5 Z"/></g>
<g><path style="opacity:1" fill="#9aa9cf" d="M 164.5,85.5 C 168.376,86.0338 172.042,87.2005 175.5,89C 170.969,88.9502 166.636,88.1169 162.5,86.5C 163.492,86.6716 164.158,86.3382 164.5,85.5 Z"/></g>
<g><path style="opacity:1" fill="#aebbd8" d="M 26.5,95.5 C 26.3284,96.4916 26.6618,97.1583 27.5,97.5C 26.1083,98.522 24.775,98.1887 23.5,96.5C 24.325,95.6143 25.325,95.281 26.5,95.5 Z"/></g>
<g><path style="opacity:1" fill="#8fa1c9" d="M 55.5,131.5 C 53.804,135.047 51.804,135.047 49.5,131.5C 50.8471,130.829 52.0138,130.829 53,131.5C 53.3333,130.833 53.6667,130.167 54,129.5C 54.2784,130.416 54.7784,131.082 55.5,131.5 Z"/></g>
</svg>
