<svg version="1.1" id="Layer_1" xmlns="http://www.w3.org/2000/svg" xmlns:xlink="http://www.w3.org/1999/xlink" x="0px" y="0px"
	 width="100%" viewBox="0 0 3144 3026" enable-background="new 0 0 3144 3026" xml:space="preserve">
<path fill="#000000" opacity="1.000000" stroke="none" 
	d="
M1772.000000,3028.000000 
	C1181.333496,3028.000000 591.666870,3028.000000 2.000237,3028.000000 
	C2.000158,2019.333618 2.000158,1010.667236 2.000079,2.000643 
	C1049.999512,2.000429 2097.999023,2.000429 3145.999023,2.000215 
	C3145.999268,1010.666016 3145.999268,2019.332031 3145.999512,3027.999023 
	C2688.333252,3028.000000 2230.666748,3028.000000 1772.000000,3028.000000 
M1639.090698,297.712738 
	C1617.825439,297.030426 1596.562500,296.265076 1575.294434,295.683411 
	C1533.540649,294.541473 1492.342407,299.294769 1451.983765,309.651703 
	C1429.264526,315.481964 1406.893799,322.974426 1384.851929,331.045105 
	C1366.502563,337.763733 1348.400879,345.519775 1331.021362,354.437378 
	C1308.087036,366.205231 1285.703247,379.239349 1265.156860,394.896149 
	C1245.988403,409.503052 1226.889771,424.374573 1209.159668,440.653564 
	C1185.452759,462.420197 1163.394531,485.946472 1144.930298,512.498901 
	C1134.352417,527.710571 1123.534790,542.830261 1114.125122,558.759399 
	C1104.039795,575.832214 1095.338013,593.733521 1086.292969,611.406738 
	C1076.617432,630.312134 1069.372070,650.222595 1063.089722,670.464355 
	C1059.260864,682.801331 1055.345581,695.177368 1052.665283,707.790039 
	C1048.054443,729.486755 1043.011230,751.237061 1040.678955,773.233093 
	C1038.161499,796.975708 1038.563477,821.026733 1037.660156,844.941956 
	C1036.411377,878.001892 1040.989868,910.518250 1046.802979,942.913879 
	C1051.327393,968.127869 1058.619141,992.633301 1066.829102,1016.824463 
	C1071.942139,1031.890015 1077.806396,1046.771973 1084.429443,1061.234375 
	C1091.726685,1077.168945 1099.632568,1092.905762 1108.460938,1108.035645 
	C1117.791626,1124.026367 1127.901855,1139.652588 1138.809814,1154.608032 
	C1150.492065,1170.625000 1162.742920,1186.369751 1176.130737,1200.962646 
	C1191.543335,1217.762939 1208.010132,1233.681152 1224.899780,1249.012329 
	C1236.872681,1259.880493 1249.865967,1269.778564 1263.194946,1278.961060 
	C1281.731201,1291.730957 1300.560181,1304.213745 1320.110474,1315.330444 
	C1335.595581,1324.135864 1352.321899,1330.771973 1368.554199,1338.247192 
	C1399.130737,1352.328125 1431.361084,1361.363037 1463.996948,1369.048584 
	C1471.737549,1370.871460 1479.827148,1371.226196 1487.552979,1373.095825 
	C1508.660400,1378.203735 1530.192017,1379.786133 1551.710327,1380.157715 
	C1594.556396,1380.897461 1637.486694,1381.610352 1679.714478,1372.100220 
	C1698.481079,1367.873901 1717.524170,1364.512695 1735.882690,1358.922852 
	C1761.857910,1351.013428 1787.233643,1341.319458 1811.933350,1329.764038 
	C1836.984985,1318.043945 1860.983643,1304.503784 1883.758179,1289.058472 
	C1913.383667,1268.966797 1941.661377,1246.941772 1966.031616,1220.476807 
	C1981.961670,1203.177368 1998.160156,1186.001709 2012.617798,1167.503906 
	C2027.701294,1148.205566 2040.631104,1127.338013 2052.977783,1106.021362 
	C2067.506104,1080.937866 2079.635986,1054.846069 2089.742188,1027.926025 
	C2102.099121,995.011902 2111.556152,961.078064 2116.484131,926.134399 
	C2120.278564,899.226929 2124.105713,872.274109 2123.633789,844.984802 
	C2123.353027,828.752380 2124.491943,812.527832 2121.854004,796.291748 
	C2119.464111,781.583374 2119.063232,766.561218 2116.959961,751.794922 
	C2113.308105,726.159241 2106.831055,701.113098 2099.457764,676.322815 
	C2096.333008,665.816467 2092.940674,655.334839 2088.806152,645.194153 
	C2077.801514,618.202759 2066.053223,591.592529 2051.265625,566.321472 
	C2038.847412,545.099426 2025.315552,524.704773 2010.348389,505.280762 
	C1996.002075,486.662659 1980.136719,469.390747 1963.579956,452.623413 
	C1943.230469,432.015350 1921.354858,413.261169 1897.968384,396.474670 
	C1872.406738,378.126465 1845.333252,362.101501 1816.853760,348.330017 
	C1783.545044,332.223358 1748.964844,319.769440 1713.333862,310.556976 
	C1689.650513,304.433563 1665.486694,299.629272 1639.090698,297.712738 
M2795.928467,813.341492 
	C2786.491455,777.110291 2766.411377,748.087769 2736.392090,725.910706 
	C2706.166016,703.580933 2671.792480,692.799500 2634.596191,692.568787 
	C2610.903320,692.421814 2587.493408,696.728699 2565.559326,706.589844 
	C2518.150635,727.903992 2486.293213,762.848816 2472.095703,813.322083 
	C2467.045166,831.277710 2466.980713,849.583984 2468.109375,867.887878 
	C2469.727295,894.117920 2472.050537,920.304443 2474.060791,946.510437 
	C2476.707275,981.008667 2479.380859,1015.504822 2481.967285,1050.007568 
	C2483.559082,1071.244263 2484.910645,1092.499390 2486.548096,1113.732422 
	C2488.875244,1143.912354 2491.400879,1174.076904 2493.770752,1204.253662 
	C2494.890869,1218.517822 2495.781494,1232.799805 2496.891846,1247.064819 
	C2498.440186,1266.962524 2500.143311,1286.848267 2501.649170,1306.749023 
	C2501.840088,1309.273315 2501.239990,1311.857422 2501.042725,1314.014404 
	C2500.051025,1314.491089 2499.749512,1314.768555 2499.465332,1314.751953 
	C2496.833740,1314.598145 2494.190186,1314.512329 2491.577881,1314.186035 
	C2451.135254,1309.133545 2411.138428,1310.819336 2371.854248,1322.369507 
	C2321.343262,1337.220215 2278.171387,1363.479004 2244.718262,1404.710938 
	C2243.041748,1406.777344 2241.390625,1408.899292 2239.475098,1410.731201 
	C2212.524658,1436.506836 2185.514160,1462.219604 2158.551514,1487.982666 
	C2133.754395,1511.676514 2108.938965,1535.351685 2084.237793,1559.145386 
	C2055.453613,1586.872070 2026.709351,1614.641602 1998.138306,1642.587158 
	C1993.251953,1647.366577 1988.031006,1650.994751 1981.589844,1653.285645 
	C1940.854614,1667.773926 1902.959595,1687.731689 1867.677124,1712.712158 
	C1841.470825,1731.266724 1817.418945,1752.324219 1795.729492,1775.928833 
	C1769.719971,1804.235107 1747.655640,1835.392822 1728.925293,1869.077881 
	C1697.235474,1926.068848 1683.624023,1986.950562 1688.564087,2051.753418 
	C1691.777588,2093.906006 1702.451050,2134.419678 1719.380127,2173.247559 
	C1721.056030,2177.091309 1722.129517,2181.547607 1722.130005,2185.719482 
	C1722.137085,2239.042480 1721.926880,2292.365723 1721.692261,2345.688477 
	C1721.650391,2355.188965 1721.122192,2355.654785 1711.271362,2355.713135 
	C1694.273560,2355.813721 1677.274414,2355.675781 1660.276733,2355.780029 
	C1647.355347,2355.859375 1636.332031,2360.625977 1626.984863,2369.556152 
	C1615.605835,2380.427490 1611.627808,2393.870850 1611.649902,2409.288086 
	C1611.797241,2512.277832 1611.721802,2615.267334 1611.744873,2718.257080 
	C1611.745605,2721.916992 1611.402344,2725.737549 1612.302002,2729.201904 
	C1613.956421,2735.573242 1615.368408,2742.380127 1618.739746,2747.862549 
	C1628.718750,2764.089844 1643.666016,2772.267822 1662.926758,2772.260254 
	C1730.919922,2772.233154 1798.913086,2772.252686 1866.906250,2772.252930 
	C2014.891479,2772.253418 2162.876709,2772.267334 2310.861816,2772.197266 
	C2316.485107,2772.194580 2322.301270,2772.148682 2327.697021,2770.800293 
	C2350.752197,2765.037842 2365.683105,2745.765625 2365.717773,2721.912842 
	C2365.813477,2655.919434 2365.754395,2589.926025 2365.755127,2523.932617 
	C2365.755615,2485.269775 2365.806152,2446.607178 2365.736816,2407.944336 
	C2365.680420,2376.554688 2345.081299,2355.855469 2313.943848,2355.754639 
	C2301.945068,2355.715820 2289.945801,2355.806885 2277.947998,2355.693115 
	C2275.156738,2355.666748 2272.371094,2355.047119 2269.766602,2354.723145 
	C2269.766602,2346.908691 2270.038574,2340.257080 2269.693848,2333.637695 
	C2269.312988,2326.324951 2272.168701,2321.235107 2277.878906,2316.636230 
	C2305.638184,2294.279541 2333.125244,2271.584961 2360.714600,2249.017578 
	C2455.342773,2171.613770 2549.991455,2094.235596 2644.592285,2016.798706 
	C2673.644531,1993.017456 2671.099609,1998.350098 2686.652344,1960.461426 
	C2715.875244,1889.269653 2745.307617,1818.164062 2774.691895,1747.038452 
	C2794.662842,1698.697510 2814.727051,1650.395264 2834.697021,1602.053955 
	C2849.070557,1567.260986 2863.505371,1532.492310 2877.638184,1497.601440 
	C2889.860840,1467.426025 2895.099121,1435.942261 2891.056152,1403.616089 
	C2887.174805,1372.581787 2881.607422,1341.756226 2876.675537,1310.855713 
	C2869.223389,1264.167114 2861.648193,1217.498291 2854.183350,1170.811768 
	C2845.668213,1117.554321 2837.225830,1064.285278 2828.734619,1011.023987 
	C2822.496582,971.896729 2816.359863,932.752686 2809.933350,893.656311 
	C2805.614502,867.381836 2800.867188,841.177795 2795.928467,813.341492 
M671.670593,2151.308594 
	C707.754578,2180.843750 743.833557,2210.385254 779.924011,2239.912598 
	C811.634033,2265.855713 843.406250,2291.723633 874.990723,2317.818359 
	C877.854858,2320.184814 881.153015,2323.811035 881.477356,2327.123535 
	C882.368958,2336.229492 881.785217,2345.479736 881.785217,2355.278320 
	C878.025085,2355.449219 874.757446,2355.711670 871.488770,2355.726318 
	C859.157349,2355.781738 846.825012,2355.838135 834.494263,2355.737061 
	C823.680237,2355.648193 814.221802,2359.467285 805.802917,2365.830322 
	C792.035034,2376.236572 786.191162,2390.419189 786.207031,2407.522461 
	C786.294800,2502.175781 786.245972,2596.829102 786.245911,2691.482422 
	C786.245911,2702.147705 786.111511,2712.815430 786.300537,2723.477295 
	C786.569641,2738.650879 792.374023,2751.271973 804.320251,2760.861572 
	C814.623352,2769.131836 826.343567,2772.364990 839.587341,2772.355957 
	C1055.223633,2772.209473 1270.860107,2772.252197 1486.496460,2772.251465 
	C1488.162842,2772.251465 1489.829468,2772.223633 1491.495728,2772.239014 
	C1517.450562,2772.477295 1540.546265,2749.052979 1540.440186,2723.037842 
	C1540.008179,2617.054443 1540.014404,2511.067383 1540.412842,2405.083740 
	C1540.526489,2374.858643 1512.976074,2354.998779 1490.630981,2355.656250 
	C1474.314087,2356.136230 1457.971436,2355.796387 1441.640747,2355.726562 
	C1430.603271,2355.679443 1430.332764,2355.431641 1430.290771,2344.602051 
	C1430.088501,2292.281006 1429.849854,2239.959961 1429.917603,2187.639160 
	C1429.924316,2182.503906 1431.101196,2177.010986 1433.143921,2172.294189 
	C1451.339966,2130.272949 1461.949463,2086.467285 1464.068726,2040.748779 
	C1466.146240,1995.932983 1459.544922,1952.458984 1442.765503,1910.621216 
	C1429.531616,1877.624146 1411.804321,1847.220581 1390.942627,1818.572021 
	C1368.296631,1787.473145 1342.262085,1759.529419 1312.631470,1734.938232 
	C1269.103027,1698.812744 1220.522705,1671.621948 1167.482666,1652.172363 
	C1163.858643,1650.843384 1160.295654,1648.566284 1157.492432,1645.901123 
	C1125.638794,1615.615723 1093.894653,1585.214844 1062.213379,1554.749023 
	C1040.848389,1534.203979 1019.632141,1513.503906 998.345093,1492.877686 
	C989.255432,1484.069946 980.213562,1475.211670 971.047729,1466.483643 
	C947.196350,1443.772095 922.406555,1422.019165 900.621277,1397.203247 
	C896.231689,1392.203003 891.931091,1387.055542 887.039673,1382.576294 
	C864.759399,1362.173096 840.032227,1345.506348 812.029968,1333.810303 
	C766.497559,1314.792603 719.269531,1307.972778 670.240479,1313.412476 
	C664.049255,1314.099243 657.830750,1314.540527 650.579773,1315.188965 
	C650.579773,1309.816162 650.285522,1305.245605 650.630005,1300.723633 
	C652.246704,1279.499512 654.141541,1258.296387 655.740784,1237.071045 
	C657.440552,1214.509277 658.811890,1191.922852 660.521423,1169.361938 
	C662.858704,1138.515869 665.442444,1107.688599 667.801208,1076.844116 
	C669.475708,1054.947998 670.862122,1033.029907 672.540222,1011.134216 
	C674.878723,980.622253 677.355774,950.120911 679.801453,919.617249 
	C680.971069,905.028442 682.759033,890.463745 683.260071,875.853638 
	C683.806702,859.912598 685.148376,843.626282 682.718445,828.023926 
	C674.694153,776.500000 645.732666,739.085571 600.817200,713.655396 
	C575.011719,699.044983 546.728455,692.879883 517.422791,692.545837 
	C500.839539,692.356873 484.173279,694.733521 468.217590,699.937378 
	C404.503326,720.717651 363.948029,762.547546 352.511414,829.674744 
	C343.565399,882.183533 335.823090,934.896667 327.423096,987.499390 
	C318.393127,1044.047363 309.205994,1100.570190 300.112671,1157.108032 
	C289.591888,1222.521118 279.045197,1287.930176 268.627167,1353.359741 
	C265.644226,1372.093750 261.991699,1390.809937 260.546967,1409.679810 
	C258.121124,1441.364136 263.762451,1471.979248 276.012115,1501.436890 
	C303.513947,1567.572266 330.722290,1633.829712 358.078949,1700.025513 
	C396.250793,1792.390991 434.615051,1884.677612 472.420593,1977.192749 
	C477.017212,1988.441528 483.294250,1997.451904 492.566132,2005.005981 
	C551.960388,2053.396973 611.238831,2101.929932 671.670593,2151.308594 
z"/>
<path fill="#F3511E" opacity="1.000000" stroke="none" 
	d="
M1640.003906,297.790649 
	C1665.486694,299.629272 1689.650513,304.433563 1713.333862,310.556976 
	C1748.964844,319.769440 1783.545044,332.223358 1816.853760,348.330017 
	C1845.333252,362.101501 1872.406738,378.126465 1897.968384,396.474670 
	C1921.354858,413.261169 1943.230469,432.015350 1963.579956,452.623413 
	C1980.136719,469.390747 1996.002075,486.662659 2010.348389,505.280762 
	C2025.315552,524.704773 2038.847412,545.099426 2051.265625,566.321472 
	C2066.053223,591.592529 2077.801514,618.202759 2088.806152,645.194153 
	C2092.940674,655.334839 2096.333008,665.816467 2099.457764,676.322815 
	C2106.831055,701.113098 2113.308105,726.159241 2116.959961,751.794922 
	C2119.063232,766.561218 2119.464111,781.583374 2121.854004,796.291748 
	C2124.491943,812.527832 2123.353027,828.752380 2123.633789,844.984802 
	C2124.105713,872.274109 2120.278564,899.226929 2116.484131,926.134399 
	C2111.556152,961.078064 2102.099121,995.011902 2089.742188,1027.926025 
	C2079.635986,1054.846069 2067.506104,1080.937866 2052.977783,1106.021362 
	C2040.631104,1127.338013 2027.701294,1148.205566 2012.617798,1167.503906 
	C1998.160156,1186.001709 1981.961670,1203.177368 1966.031616,1220.476807 
	C1941.661377,1246.941772 1913.383667,1268.966797 1883.758179,1289.058472 
	C1860.983643,1304.503784 1836.984985,1318.043945 1811.933350,1329.764038 
	C1787.233643,1341.319458 1761.857910,1351.013428 1735.882690,1358.922852 
	C1717.524170,1364.512695 1698.481079,1367.873901 1679.714478,1372.100220 
	C1637.486694,1381.610352 1594.556396,1380.897461 1551.710327,1380.157715 
	C1530.192017,1379.786133 1508.660400,1378.203735 1487.552979,1373.095825 
	C1479.827148,1371.226196 1471.737549,1370.871460 1463.996948,1369.048584 
	C1431.361084,1361.363037 1399.130737,1352.328125 1368.554199,1338.247192 
	C1352.321899,1330.771973 1335.595581,1324.135864 1320.110474,1315.330444 
	C1300.560181,1304.213745 1281.731201,1291.730957 1263.194946,1278.961060 
	C1249.865967,1269.778564 1236.872681,1259.880493 1224.899780,1249.012329 
	C1208.010132,1233.681152 1191.543335,1217.762939 1176.130737,1200.962646 
	C1162.742920,1186.369751 1150.492065,1170.625000 1138.809814,1154.608032 
	C1127.901855,1139.652588 1117.791626,1124.026367 1108.460938,1108.035645 
	C1099.632568,1092.905762 1091.726685,1077.168945 1084.429443,1061.234375 
	C1077.806396,1046.771973 1071.942139,1031.890015 1066.829102,1016.824463 
	C1058.619141,992.633301 1051.327393,968.127869 1046.802979,942.913879 
	C1040.989868,910.518250 1036.411377,878.001892 1037.660156,844.941956 
	C1038.563477,821.026733 1038.161499,796.975708 1040.678955,773.233093 
	C1043.011230,751.237061 1048.054443,729.486755 1052.665283,707.790039 
	C1055.345581,695.177368 1059.260864,682.801331 1063.089722,670.464355 
	C1069.372070,650.222595 1076.617432,630.312134 1086.292969,611.406738 
	C1095.338013,593.733521 1104.039795,575.832214 1114.125122,558.759399 
	C1123.534790,542.830261 1134.352417,527.710571 1144.930298,512.498901 
	C1163.394531,485.946472 1185.452759,462.420197 1209.159668,440.653564 
	C1226.889771,424.374573 1245.988403,409.503052 1265.156860,394.896149 
	C1285.703247,379.239349 1308.087036,366.205231 1331.021362,354.437378 
	C1348.400879,345.519775 1366.502563,337.763733 1384.851929,331.045105 
	C1406.893799,322.974426 1429.264526,315.481964 1451.983765,309.651703 
	C1492.342407,299.294769 1533.540649,294.541473 1575.294434,295.683411 
	C1596.562500,296.265076 1617.825439,297.030426 1640.003906,297.790649 
M1510.704468,1106.295288 
	C1534.240112,1124.356812 1557.775635,1142.418457 1581.220825,1160.410522 
	C1592.589722,1151.657104 1603.386475,1143.445923 1614.074097,1135.095215 
	C1639.894775,1114.920166 1665.763916,1094.805176 1691.427246,1074.431274 
	C1717.743652,1053.539185 1742.396240,1030.778442 1765.299683,1006.202148 
	C1779.084839,991.410278 1792.562744,976.301147 1805.577637,960.828918 
	C1829.803589,932.028748 1850.151855,900.791687 1865.824097,866.368164 
	C1876.106445,843.783264 1882.512207,820.263794 1887.167236,796.163208 
	C1888.981323,786.770691 1890.131104,776.905701 1889.356689,767.438110 
	C1888.201294,753.311646 1887.650757,739.166748 1884.024536,725.102478 
	C1875.188477,690.831848 1861.573730,659.225586 1838.251099,632.309326 
	C1819.888672,611.117676 1796.781250,597.192444 1769.779907,590.148132 
	C1749.565186,584.874390 1728.912476,584.848267 1708.502563,589.061890 
	C1682.267456,594.478149 1658.313232,605.035217 1636.324219,620.741211 
	C1611.805298,638.254028 1593.559692,660.129822 1583.263184,688.502075 
	C1582.300415,691.154968 1581.511841,693.871094 1580.592285,696.713135 
	C1579.558350,696.025574 1578.734985,695.786560 1578.618896,695.356628 
	C1572.471436,672.594360 1559.498047,654.124756 1543.197510,637.492249 
	C1520.525879,614.358948 1493.174805,598.789368 1462.274292,590.996094 
	C1426.202759,581.898499 1390.671997,583.783508 1357.218506,603.348145 
	C1332.996460,617.513855 1315.378906,637.464111 1301.479248,661.190063 
	C1292.562866,676.409912 1286.375366,692.799744 1280.826904,709.562134 
	C1273.713257,731.053162 1271.405029,752.996460 1272.177002,775.359131 
	C1272.853271,794.945190 1275.425415,814.200989 1281.577393,833.050537 
	C1288.085815,852.992615 1296.257690,872.110657 1306.237671,890.473877 
	C1317.340576,910.903503 1329.869385,930.533142 1344.676147,948.414795 
	C1362.210938,969.591064 1380.522217,990.163269 1399.250000,1010.296753 
	C1409.335327,1021.139282 1420.884399,1030.641479 1431.974609,1040.522339 
	C1444.569824,1051.744263 1457.230591,1062.903931 1470.157227,1073.739380 
	C1483.080444,1084.571899 1496.367310,1094.970581 1510.704468,1106.295288 
z"/>
<path fill="#424242" opacity="1.000000" stroke="none" 
	d="
M2796.120117,814.141846 
	C2800.867188,841.177795 2805.614502,867.381836 2809.933350,893.656311 
	C2816.359863,932.752686 2822.496582,971.896729 2828.734619,1011.023987 
	C2837.225830,1064.285278 2845.668213,1117.554321 2854.183350,1170.811768 
	C2861.648193,1217.498291 2869.223389,1264.167114 2876.675537,1310.855713 
	C2881.607422,1341.756226 2887.174805,1372.581787 2891.056152,1403.616089 
	C2895.099121,1435.942261 2889.860840,1467.426025 2877.638184,1497.601440 
	C2863.505371,1532.492310 2849.070557,1567.260986 2834.697021,1602.053955 
	C2814.727051,1650.395264 2794.662842,1698.697510 2774.691895,1747.038452 
	C2745.307617,1818.164062 2715.875244,1889.269653 2686.652344,1960.461426 
	C2671.099609,1998.350098 2673.644531,1993.017456 2644.592285,2016.798706 
	C2549.991455,2094.235596 2455.342773,2171.613770 2360.714600,2249.017578 
	C2333.125244,2271.584961 2305.638184,2294.279541 2277.878906,2316.636230 
	C2272.168701,2321.235107 2269.312988,2326.324951 2269.693848,2333.637695 
	C2270.038574,2340.257080 2269.766602,2346.908691 2269.766602,2354.723145 
	C2272.371094,2355.047119 2275.156738,2355.666748 2277.947998,2355.693115 
	C2289.945801,2355.806885 2301.945068,2355.715820 2313.943848,2355.754639 
	C2345.081299,2355.855469 2365.680420,2376.554688 2365.736816,2407.944336 
	C2365.806152,2446.607178 2365.755615,2485.269775 2365.755127,2523.932617 
	C2365.754395,2589.926025 2365.813477,2655.919434 2365.717773,2721.912842 
	C2365.683105,2745.765625 2350.752197,2765.037842 2327.697021,2770.800293 
	C2322.301270,2772.148682 2316.485107,2772.194580 2310.861816,2772.197266 
	C2162.876709,2772.267334 2014.891479,2772.253418 1866.906250,2772.252930 
	C1798.913086,2772.252686 1730.919922,2772.233154 1662.926758,2772.260254 
	C1643.666016,2772.267822 1628.718750,2764.089844 1618.739746,2747.862549 
	C1615.368408,2742.380127 1613.956421,2735.573242 1612.302002,2729.201904 
	C1611.402344,2725.737549 1611.745605,2721.916992 1611.744873,2718.257080 
	C1611.721802,2615.267334 1611.797241,2512.277832 1611.649902,2409.288086 
	C1611.627808,2393.870850 1615.605835,2380.427490 1626.984863,2369.556152 
	C1636.332031,2360.625977 1647.355347,2355.859375 1660.276733,2355.780029 
	C1677.274414,2355.675781 1694.273560,2355.813721 1711.271362,2355.713135 
	C1721.122192,2355.654785 1721.650391,2355.188965 1721.692261,2345.688477 
	C1721.926880,2292.365723 1722.137085,2239.042480 1722.130005,2185.719482 
	C1722.129517,2181.547607 1721.056030,2177.091309 1719.380127,2173.247559 
	C1702.451050,2134.419678 1691.777588,2093.906006 1688.564087,2051.753418 
	C1683.624023,1986.950562 1697.235474,1926.068848 1728.925293,1869.077881 
	C1747.655640,1835.392822 1769.719971,1804.235107 1795.729492,1775.928833 
	C1817.418945,1752.324219 1841.470825,1731.266724 1867.677124,1712.712158 
	C1902.959595,1687.731689 1940.854614,1667.773926 1981.589844,1653.285645 
	C1988.031006,1650.994751 1993.251953,1647.366577 1998.138306,1642.587158 
	C2026.709351,1614.641602 2055.453613,1586.872070 2084.237793,1559.145386 
	C2108.938965,1535.351685 2133.754395,1511.676514 2158.551514,1487.982666 
	C2185.514160,1462.219604 2212.524658,1436.506836 2239.475098,1410.731201 
	C2241.390625,1408.899292 2243.041748,1406.777344 2244.718262,1404.710938 
	C2278.171387,1363.479004 2321.343262,1337.220215 2371.854248,1322.369507 
	C2411.138428,1310.819336 2451.135254,1309.133545 2491.577881,1314.186035 
	C2494.190186,1314.512329 2496.833740,1314.598145 2499.465332,1314.751953 
	C2499.749512,1314.768555 2500.051025,1314.491089 2501.042725,1314.014404 
	C2501.239990,1311.857422 2501.840088,1309.273315 2501.649170,1306.749023 
	C2500.143311,1286.848267 2498.440186,1266.962524 2496.891846,1247.064819 
	C2495.781494,1232.799805 2494.890869,1218.517822 2493.770752,1204.253662 
	C2491.400879,1174.076904 2488.875244,1143.912354 2486.548096,1113.732422 
	C2484.910645,1092.499390 2483.559082,1071.244263 2481.967285,1050.007568 
	C2479.380859,1015.504822 2476.707275,981.008667 2474.060791,946.510437 
	C2472.050537,920.304443 2469.727295,894.117920 2468.109375,867.887878 
	C2466.980713,849.583984 2467.045166,831.277710 2472.095703,813.322083 
	C2486.293213,762.848816 2518.150635,727.903992 2565.559326,706.589844 
	C2587.493408,696.728699 2610.903320,692.421814 2634.596191,692.568787 
	C2671.792480,692.799500 2706.166016,703.580933 2736.392090,725.910706 
	C2766.411377,748.087769 2786.491455,777.110291 2796.120117,814.141846 
M2673.509033,1720.484985 
	C2680.237549,1704.171265 2686.960693,1687.855225 2693.695557,1671.543945 
	C2714.928223,1620.120239 2736.266113,1568.739746 2757.351807,1517.255981 
	C2766.186523,1495.685059 2775.013916,1474.083252 2782.835693,1452.135986 
	C2787.422607,1439.264648 2788.929443,1425.702271 2786.699219,1411.799805 
	C2776.784912,1349.996094 2767.245605,1288.132446 2757.395264,1226.318237 
	C2748.488037,1170.422607 2739.301514,1114.571655 2730.332764,1058.685791 
	C2718.778809,986.689087 2707.438232,914.657837 2695.640381,842.701294 
	C2694.427490,835.303345 2691.799316,827.680664 2688.000244,821.240234 
	C2668.490723,788.167542 2623.128662,780.357605 2593.263916,804.529236 
	C2577.130859,817.586548 2569.249268,834.501587 2570.565430,855.313354 
	C2571.467529,869.583801 2572.919678,883.818604 2574.027344,898.077026 
	C2576.733154,932.904297 2579.420898,967.732910 2582.038330,1002.566833 
	C2583.584229,1023.139587 2584.878174,1043.731567 2586.468750,1064.300659 
	C2588.853760,1095.145508 2591.463623,1125.973145 2593.855957,1156.817505 
	C2595.502441,1178.050049 2596.845215,1199.306396 2598.497314,1220.538452 
	C2600.845703,1250.717651 2603.427490,1280.878662 2605.767334,1311.058472 
	C2607.439453,1332.623047 2607.900879,1354.335449 2610.744873,1375.737305 
	C2612.856201,1391.627197 2609.278076,1405.147095 2601.524902,1418.597046 
	C2550.112061,1507.786011 2498.713379,1596.984619 2447.783203,1686.449463 
	C2436.642822,1706.019409 2423.607178,1723.539185 2407.511230,1739.415894 
	C2346.054199,1800.035034 2285.138672,1861.205811 2224.318604,1922.465820 
	C2211.437988,1935.439453 2196.743408,1941.706543 2178.576660,1940.243408 
	C2159.353760,1938.695068 2144.912109,1929.406616 2136.550537,1912.312744 
	C2128.272217,1895.389038 2130.122803,1878.585449 2141.516113,1863.308105 
	C2144.885254,1858.790405 2148.729492,1854.572754 2152.718506,1850.579956 
	C2214.910156,1788.332886 2277.175537,1726.159790 2339.356689,1663.902466 
	C2342.617432,1660.637573 2345.849854,1657.102417 2348.132324,1653.138550 
	C2392.182129,1576.636597 2436.099121,1500.057983 2479.982666,1423.460449 
	C2481.713379,1420.439941 2482.842529,1417.074951 2484.713135,1412.821533 
	C2479.163818,1411.653809 2475.030029,1410.627808 2470.841309,1409.930542 
	C2455.922852,1407.447510 2441.019043,1407.928711 2426.099609,1410.159790 
	C2387.503174,1415.931274 2354.285889,1431.743530 2328.645508,1461.903931 
	C2323.903320,1467.481934 2319.331299,1473.270630 2314.076416,1478.334839 
	C2294.414551,1497.283203 2274.432617,1515.898438 2254.698975,1534.772949 
	C2221.481934,1566.543579 2188.313477,1598.365356 2155.217041,1630.261597 
	C2124.993896,1659.388306 2094.839844,1688.586914 2064.768066,1717.869751 
	C2053.650391,1728.695801 2041.351074,1736.829834 2026.331177,1741.977173 
	C1946.457764,1769.349487 1882.740601,1818.111938 1835.792236,1888.476685 
	C1805.625854,1933.689209 1788.105103,1982.465942 1791.563110,2037.856812 
	C1793.795898,2073.619873 1801.812378,2107.705811 1817.402954,2139.802490 
	C1823.559082,2152.476074 1826.589355,2165.041992 1826.436890,2179.116455 
	C1825.855835,2232.768311 1825.917603,2286.427490 1825.804810,2340.083740 
	C1825.796021,2344.297852 1826.292603,2348.512695 1826.534546,2352.411377 
	C1836.557739,2354.974609 2154.339111,2354.874756 2163.179443,2352.421387 
	C2163.501709,2350.726318 2164.082275,2348.829590 2164.192627,2346.906006 
	C2164.936768,2333.953369 2165.991699,2321.000244 2166.163818,2308.037109 
	C2166.440674,2287.146484 2173.647461,2270.636719 2190.650635,2257.149658 
	C2234.487061,2222.378418 2277.376709,2186.414551 2320.696045,2150.990234 
	C2406.044434,2081.197266 2491.403320,2011.417114 2576.850830,1941.745361 
	C2582.463379,1937.169067 2586.480957,1931.877930 2589.215332,1925.215698 
	C2617.041992,1857.412598 2644.981201,1789.655640 2673.509033,1720.484985 
M2261.748779,2535.000000 
	C2261.748779,2512.001953 2261.752930,2489.003906 2261.742920,2466.005859 
	C2261.741943,2463.340332 2261.697510,2460.673584 2261.608643,2458.009521 
	C2261.488525,2454.413818 2259.586670,2452.524658 2255.991699,2452.388916 
	C2253.993896,2452.312988 2251.994141,2452.258789 2249.995117,2452.258789 
	C2076.010498,2452.252930 1902.025757,2452.248535 1728.041016,2452.283936 
	C1724.476074,2452.284668 1720.911133,2452.754150 1717.664795,2452.982666 
	C1714.797485,2463.475098 1715.126831,2665.222900 1717.773071,2672.933105 
	C1727.787231,2675.032471 2252.246582,2674.717529 2261.437500,2672.243408 
	C2262.119385,2627.423096 2261.576416,2582.207275 2261.748779,2535.000000 
z"/>
<path fill="#424242" opacity="1.000000" stroke="none" 
	d="
M671.112915,2150.862305 
	C611.238831,2101.929932 551.960388,2053.396973 492.566132,2005.005981 
	C483.294250,1997.451904 477.017212,1988.441528 472.420593,1977.192749 
	C434.615051,1884.677612 396.250793,1792.390991 358.078949,1700.025513 
	C330.722290,1633.829712 303.513947,1567.572266 276.012115,1501.436890 
	C263.762451,1471.979248 258.121124,1441.364136 260.546967,1409.679810 
	C261.991699,1390.809937 265.644226,1372.093750 268.627167,1353.359741 
	C279.045197,1287.930176 289.591888,1222.521118 300.112671,1157.108032 
	C309.205994,1100.570190 318.393127,1044.047363 327.423096,987.499390 
	C335.823090,934.896667 343.565399,882.183533 352.511414,829.674744 
	C363.948029,762.547546 404.503326,720.717651 468.217590,699.937378 
	C484.173279,694.733521 500.839539,692.356873 517.422791,692.545837 
	C546.728455,692.879883 575.011719,699.044983 600.817200,713.655396 
	C645.732666,739.085571 674.694153,776.500000 682.718445,828.023926 
	C685.148376,843.626282 683.806702,859.912598 683.260071,875.853638 
	C682.759033,890.463745 680.971069,905.028442 679.801453,919.617249 
	C677.355774,950.120911 674.878723,980.622253 672.540222,1011.134216 
	C670.862122,1033.029907 669.475708,1054.947998 667.801208,1076.844116 
	C665.442444,1107.688599 662.858704,1138.515869 660.521423,1169.361938 
	C658.811890,1191.922852 657.440552,1214.509277 655.740784,1237.071045 
	C654.141541,1258.296387 652.246704,1279.499512 650.630005,1300.723633 
	C650.285522,1305.245605 650.579773,1309.816162 650.579773,1315.188965 
	C657.830750,1314.540527 664.049255,1314.099243 670.240479,1313.412476 
	C719.269531,1307.972778 766.497559,1314.792603 812.029968,1333.810303 
	C840.032227,1345.506348 864.759399,1362.173096 887.039673,1382.576294 
	C891.931091,1387.055542 896.231689,1392.203003 900.621277,1397.203247 
	C922.406555,1422.019165 947.196350,1443.772095 971.047729,1466.483643 
	C980.213562,1475.211670 989.255432,1484.069946 998.345093,1492.877686 
	C1019.632141,1513.503906 1040.848389,1534.203979 1062.213379,1554.749023 
	C1093.894653,1585.214844 1125.638794,1615.615723 1157.492432,1645.901123 
	C1160.295654,1648.566284 1163.858643,1650.843384 1167.482666,1652.172363 
	C1220.522705,1671.621948 1269.103027,1698.812744 1312.631470,1734.938232 
	C1342.262085,1759.529419 1368.296631,1787.473145 1390.942627,1818.572021 
	C1411.804321,1847.220581 1429.531616,1877.624146 1442.765503,1910.621216 
	C1459.544922,1952.458984 1466.146240,1995.932983 1464.068726,2040.748779 
	C1461.949463,2086.467285 1451.339966,2130.272949 1433.143921,2172.294189 
	C1431.101196,2177.010986 1429.924316,2182.503906 1429.917603,2187.639160 
	C1429.849854,2239.959961 1430.088501,2292.281006 1430.290771,2344.602051 
	C1430.332764,2355.431641 1430.603271,2355.679443 1441.640747,2355.726562 
	C1457.971436,2355.796387 1474.314087,2356.136230 1490.630981,2355.656250 
	C1512.976074,2354.998779 1540.526489,2374.858643 1540.412842,2405.083740 
	C1540.014404,2511.067383 1540.008179,2617.054443 1540.440186,2723.037842 
	C1540.546265,2749.052979 1517.450562,2772.477295 1491.495728,2772.239014 
	C1489.829468,2772.223633 1488.162842,2772.251465 1486.496460,2772.251465 
	C1270.860107,2772.252197 1055.223633,2772.209473 839.587341,2772.355957 
	C826.343567,2772.364990 814.623352,2769.131836 804.320251,2760.861572 
	C792.374023,2751.271973 786.569641,2738.650879 786.300537,2723.477295 
	C786.111511,2712.815430 786.245911,2702.147705 786.245911,2691.482422 
	C786.245972,2596.829102 786.294800,2502.175781 786.207031,2407.522461 
	C786.191162,2390.419189 792.035034,2376.236572 805.802917,2365.830322 
	C814.221802,2359.467285 823.680237,2355.648193 834.494263,2355.737061 
	C846.825012,2355.838135 859.157349,2355.781738 871.488770,2355.726318 
	C874.757446,2355.711670 878.025085,2355.449219 881.785217,2355.278320 
	C881.785217,2345.479736 882.368958,2336.229492 881.477356,2327.123535 
	C881.153015,2323.811035 877.854858,2320.184814 874.990723,2317.818359 
	C843.406250,2291.723633 811.634033,2265.855713 779.924011,2239.912598 
	C743.833557,2210.385254 707.754578,2180.843750 671.112915,2150.862305 
M631.290833,1561.711426 
	C603.286316,1512.860596 575.340576,1463.975952 547.226929,1415.187866 
	C541.714783,1405.622192 539.093628,1395.565552 539.931702,1384.604370 
	C540.438904,1377.971558 541.149292,1371.354492 541.663147,1364.722168 
	C544.335999,1330.226074 546.975037,1295.727417 549.625671,1261.229614 
	C552.301758,1226.400146 554.991760,1191.571899 557.649475,1156.741089 
	C560.332520,1121.578125 563.033142,1086.416382 565.635315,1051.247437 
	C568.581543,1011.427795 571.387024,971.597839 574.341980,931.778870 
	C575.154114,920.835388 576.481201,909.928711 577.218750,898.981384 
	C578.381775,881.716736 579.605835,864.440796 580.035461,847.150513 
	C580.179871,841.340881 578.874939,835.114563 576.700928,829.692749 
	C566.348511,803.875061 538.932617,788.834229 509.269653,792.111755 
	C482.353699,795.085754 460.192688,815.516357 455.727051,842.526062 
	C446.766418,896.723083 438.262207,950.995544 429.534729,1005.231201 
	C419.643402,1066.699219 409.700195,1128.158936 399.804718,1189.626343 
	C388.692596,1258.651001 377.895599,1327.728027 366.362152,1396.682129 
	C362.115417,1422.071899 364.147491,1446.097534 374.154877,1469.990967 
	C405.297180,1544.345459 435.836456,1618.952759 466.599640,1693.466064 
	C498.252563,1770.134155 530.018921,1846.755981 561.367432,1923.548462 
	C564.929871,1932.275146 570.024780,1938.841309 577.230957,1944.657349 
	C613.258667,1973.734863 649.067078,2003.084717 684.909302,2032.391602 
	C739.831787,2077.299805 794.718506,2122.251465 849.620911,2167.184082 
	C888.801147,2199.249512 928.011169,2231.278320 967.143616,2263.401855 
	C977.105408,2271.579346 983.173157,2282.165527 984.097107,2295.092529 
	C985.164185,2310.023438 985.470032,2325.007812 986.343384,2339.954834 
	C986.627686,2344.821533 987.656006,2349.645020 988.284424,2354.068848 
	C999.156372,2356.563721 1316.832520,2356.268311 1325.594727,2353.755859 
	C1325.801392,2349.836182 1326.226562,2345.602539 1326.217163,2341.369873 
	C1326.091553,2285.047607 1325.988037,2228.724609 1325.651611,2172.403320 
	C1325.596191,2163.151367 1327.466553,2154.664307 1331.644775,2146.443848 
	C1342.579834,2124.929199 1350.076904,2102.187500 1354.875122,2078.570068 
	C1363.178467,2037.699341 1363.150269,1997.046997 1349.484009,1957.258911 
	C1334.417969,1913.395264 1309.226929,1875.474121 1278.010132,1841.596680 
	C1236.817505,1796.893188 1187.189331,1764.442871 1129.750732,1744.767822 
	C1111.806274,1738.621094 1096.990112,1729.266968 1083.644409,1716.307983 
	C1049.712891,1683.359375 1015.450562,1650.751831 981.385376,1617.940308 
	C959.552673,1596.911011 937.839783,1575.757324 916.063477,1554.669434 
	C907.926636,1546.789917 899.719238,1538.982910 891.619202,1531.065918 
	C867.123962,1507.124512 840.542053,1485.269775 818.936646,1458.435181 
	C818.312256,1457.659790 817.570007,1456.975342 816.853210,1456.278809 
	C775.996155,1416.587524 726.997375,1403.812500 671.577332,1412.456543 
	C669.870300,1412.722900 668.339844,1414.121826 666.230652,1415.260864 
	C668.937012,1420.220825 671.235107,1424.622559 673.702820,1428.927002 
	C712.800842,1497.126587 752.110413,1565.205811 790.904846,1633.577515 
	C800.860168,1651.122925 812.780640,1666.634644 827.161316,1680.838013 
	C885.021057,1737.984375 942.345642,1795.672729 999.812256,1853.216431 
	C1003.801270,1857.210815 1007.711670,1861.386353 1011.016602,1865.943359 
	C1024.937256,1885.137939 1021.488464,1912.804443 1003.477417,1928.372192 
	C981.423584,1947.434570 950.014221,1946.506348 929.296021,1925.827881 
	C861.591492,1858.254028 793.960754,1790.605957 726.431702,1722.856812 
	C722.262390,1718.673584 718.691101,1713.674561 715.727722,1708.543335 
	C687.736145,1660.074585 659.937012,1611.494629 631.290833,1561.711426 
M1436.266113,2493.000977 
	C1436.034790,2480.454102 1436.794556,2467.862549 1435.815063,2456.143799 
	C1434.022949,2455.067871 1433.502808,2454.573486 1432.899292,2454.430908 
	C1431.613403,2454.126709 1430.284302,2453.832764 1428.972900,2453.832520 
	C1252.323364,2453.791016 1075.673828,2453.773682 899.024231,2453.794189 
	C897.059998,2453.794434 895.093628,2454.288574 893.133545,2454.586670 
	C892.823547,2454.634033 892.509033,2454.826660 892.256348,2455.027100 
	C892.000671,2455.229980 891.819580,2455.526855 890.803223,2456.742432 
	C890.656494,2460.003418 890.300171,2464.263672 890.297791,2468.523926 
	C890.262207,2532.851074 890.270447,2597.178467 890.281311,2661.505615 
	C890.281860,2664.502930 890.336609,2667.503906 890.485779,2670.496826 
	C890.642944,2673.650146 892.421814,2675.341064 895.550903,2675.542236 
	C897.544312,2675.670410 899.545166,2675.738281 901.542725,2675.738525 
	C1075.859619,2675.747314 1250.176392,2675.752197 1424.493286,2675.708252 
	C1428.026123,2675.707275 1431.558716,2675.131592 1436.266968,2674.721680 
	C1436.266968,2614.182617 1436.266968,2554.591553 1436.266113,2493.000977 
z"/>
<path fill="#010000" opacity="1.000000" stroke="none" 
	d="
M1510.099609,1105.927368 
	C1496.367310,1094.970581 1483.080444,1084.571899 1470.157227,1073.739380 
	C1457.230591,1062.903931 1444.569824,1051.744263 1431.974609,1040.522339 
	C1420.884399,1030.641479 1409.335327,1021.139282 1399.250000,1010.296753 
	C1380.522217,990.163269 1362.210938,969.591064 1344.676147,948.414795 
	C1329.869385,930.533142 1317.340576,910.903503 1306.237671,890.473877 
	C1296.257690,872.110657 1288.085815,852.992615 1281.577393,833.050537 
	C1275.425415,814.200989 1272.853271,794.945190 1272.177002,775.359131 
	C1271.405029,752.996460 1273.713257,731.053162 1280.826904,709.562134 
	C1286.375366,692.799744 1292.562866,676.409912 1301.479248,661.190063 
	C1315.378906,637.464111 1332.996460,617.513855 1357.218506,603.348145 
	C1390.671997,583.783508 1426.202759,581.898499 1462.274292,590.996094 
	C1493.174805,598.789368 1520.525879,614.358948 1543.197510,637.492249 
	C1559.498047,654.124756 1572.471436,672.594360 1578.618896,695.356628 
	C1578.734985,695.786560 1579.558350,696.025574 1580.592285,696.713135 
	C1581.511841,693.871094 1582.300415,691.154968 1583.263184,688.502075 
	C1593.559692,660.129822 1611.805298,638.254028 1636.324219,620.741211 
	C1658.313232,605.035217 1682.267456,594.478149 1708.502563,589.061890 
	C1728.912476,584.848267 1749.565186,584.874390 1769.779907,590.148132 
	C1796.781250,597.192444 1819.888672,611.117676 1838.251099,632.309326 
	C1861.573730,659.225586 1875.188477,690.831848 1884.024536,725.102478 
	C1887.650757,739.166748 1888.201294,753.311646 1889.356689,767.438110 
	C1890.131104,776.905701 1888.981323,786.770691 1887.167236,796.163208 
	C1882.512207,820.263794 1876.106445,843.783264 1865.824097,866.368164 
	C1850.151855,900.791687 1829.803589,932.028748 1805.577637,960.828918 
	C1792.562744,976.301147 1779.084839,991.410278 1765.299683,1006.202148 
	C1742.396240,1030.778442 1717.743652,1053.539185 1691.427246,1074.431274 
	C1665.763916,1094.805176 1639.894775,1114.920166 1614.074097,1135.095215 
	C1603.386475,1143.445923 1592.589722,1151.657104 1581.220825,1160.410522 
	C1557.775635,1142.418457 1534.240112,1124.356812 1510.099609,1105.927368 
z"/>
<path fill="#000000" opacity="1.000000" stroke="none" 
	d="
M2673.198730,1721.185303 
	C2644.981201,1789.655640 2617.041992,1857.412598 2589.215332,1925.215698 
	C2586.480957,1931.877930 2582.463379,1937.169067 2576.850830,1941.745361 
	C2491.403320,2011.417114 2406.044434,2081.197266 2320.696045,2150.990234 
	C2277.376709,2186.414551 2234.487061,2222.378418 2190.650635,2257.149658 
	C2173.647461,2270.636719 2166.440674,2287.146484 2166.163818,2308.037109 
	C2165.991699,2321.000244 2164.936768,2333.953369 2164.192627,2346.906006 
	C2164.082275,2348.829590 2163.501709,2350.726318 2163.179443,2352.421387 
	C2154.339111,2354.874756 1836.557739,2354.974609 1826.534546,2352.411377 
	C1826.292603,2348.512695 1825.796021,2344.297852 1825.804810,2340.083740 
	C1825.917603,2286.427490 1825.855835,2232.768311 1826.436890,2179.116455 
	C1826.589355,2165.041992 1823.559082,2152.476074 1817.402954,2139.802490 
	C1801.812378,2107.705811 1793.795898,2073.619873 1791.563110,2037.856812 
	C1788.105103,1982.465942 1805.625854,1933.689209 1835.792236,1888.476685 
	C1882.740601,1818.111938 1946.457764,1769.349487 2026.331177,1741.977173 
	C2041.351074,1736.829834 2053.650391,1728.695801 2064.768066,1717.869751 
	C2094.839844,1688.586914 2124.993896,1659.388306 2155.217041,1630.261597 
	C2188.313477,1598.365356 2221.481934,1566.543579 2254.698975,1534.772949 
	C2274.432617,1515.898438 2294.414551,1497.283203 2314.076416,1478.334839 
	C2319.331299,1473.270630 2323.903320,1467.481934 2328.645508,1461.903931 
	C2354.285889,1431.743530 2387.503174,1415.931274 2426.099609,1410.159790 
	C2441.019043,1407.928711 2455.922852,1407.447510 2470.841309,1409.930542 
	C2475.030029,1410.627808 2479.163818,1411.653809 2484.713135,1412.821533 
	C2482.842529,1417.074951 2481.713379,1420.439941 2479.982666,1423.460449 
	C2436.099121,1500.057983 2392.182129,1576.636597 2348.132324,1653.138550 
	C2345.849854,1657.102417 2342.617432,1660.637573 2339.356689,1663.902466 
	C2277.175537,1726.159790 2214.910156,1788.332886 2152.718506,1850.579956 
	C2148.729492,1854.572754 2144.885254,1858.790405 2141.516113,1863.308105 
	C2130.122803,1878.585449 2128.272217,1895.389038 2136.550537,1912.312744 
	C2144.912109,1929.406616 2159.353760,1938.695068 2178.576660,1940.243408 
	C2196.743408,1941.706543 2211.437988,1935.439453 2224.318604,1922.465820 
	C2285.138672,1861.205811 2346.054199,1800.035034 2407.511230,1739.415894 
	C2423.607178,1723.539185 2436.642822,1706.019409 2447.783203,1686.449463 
	C2498.713379,1596.984619 2550.112061,1507.786011 2601.524902,1418.597046 
	C2609.278076,1405.147095 2612.856201,1391.627197 2610.744873,1375.737305 
	C2607.900879,1354.335449 2607.439453,1332.623047 2605.767334,1311.058472 
	C2603.427490,1280.878662 2600.845703,1250.717651 2598.497314,1220.538452 
	C2596.845215,1199.306396 2595.502441,1178.050049 2593.855957,1156.817505 
	C2591.463623,1125.973145 2588.853760,1095.145508 2586.468750,1064.300659 
	C2584.878174,1043.731567 2583.584229,1023.139587 2582.038330,1002.566833 
	C2579.420898,967.732910 2576.733154,932.904297 2574.027344,898.077026 
	C2572.919678,883.818604 2571.467529,869.583801 2570.565430,855.313354 
	C2569.249268,834.501587 2577.130859,817.586548 2593.263916,804.529236 
	C2623.128662,780.357605 2668.490723,788.167542 2688.000244,821.240234 
	C2691.799316,827.680664 2694.427490,835.303345 2695.640381,842.701294 
	C2707.438232,914.657837 2718.778809,986.689087 2730.332764,1058.685791 
	C2739.301514,1114.571655 2748.488037,1170.422607 2757.395264,1226.318237 
	C2767.245605,1288.132446 2776.784912,1349.996094 2786.699219,1411.799805 
	C2788.929443,1425.702271 2787.422607,1439.264648 2782.835693,1452.135986 
	C2775.013916,1474.083252 2766.186523,1495.685059 2757.351807,1517.255981 
	C2736.266113,1568.739746 2714.928223,1620.120239 2693.695557,1671.543945 
	C2686.960693,1687.855225 2680.237549,1704.171265 2673.198730,1721.185303 
z"/>
<path fill="#000000" opacity="1.000000" stroke="none" 
	d="
M2261.748535,2536.000000 
	C2261.576416,2582.207275 2262.119385,2627.423096 2261.437500,2672.243408 
	C2252.246582,2674.717529 1727.787231,2675.032471 1717.773071,2672.933105 
	C1715.126831,2665.222900 1714.797485,2463.475098 1717.664795,2452.982666 
	C1720.911133,2452.754150 1724.476074,2452.284668 1728.041016,2452.283936 
	C1902.025757,2452.248535 2076.010498,2452.252930 2249.995117,2452.258789 
	C2251.994141,2452.258789 2253.993896,2452.312988 2255.991699,2452.388916 
	C2259.586670,2452.524658 2261.488525,2454.413818 2261.608643,2458.009521 
	C2261.697510,2460.673584 2261.741943,2463.340332 2261.742920,2466.005859 
	C2261.752930,2489.003906 2261.748779,2512.001953 2261.748535,2536.000000 
z"/>
<path fill="#000000" opacity="1.000000" stroke="none" 
	d="
M631.686646,1562.329102 
	C659.937012,1611.494629 687.736145,1660.074585 715.727722,1708.543335 
	C718.691101,1713.674561 722.262390,1718.673584 726.431702,1722.856812 
	C793.960754,1790.605957 861.591492,1858.254028 929.296021,1925.827881 
	C950.014221,1946.506348 981.423584,1947.434570 1003.477417,1928.372192 
	C1021.488464,1912.804443 1024.937256,1885.137939 1011.016602,1865.943359 
	C1007.711670,1861.386353 1003.801270,1857.210815 999.812256,1853.216431 
	C942.345642,1795.672729 885.021057,1737.984375 827.161316,1680.838013 
	C812.780640,1666.634644 800.860168,1651.122925 790.904846,1633.577515 
	C752.110413,1565.205811 712.800842,1497.126587 673.702820,1428.927002 
	C671.235107,1424.622559 668.937012,1420.220825 666.230652,1415.260864 
	C668.339844,1414.121826 669.870300,1412.722900 671.577332,1412.456543 
	C726.997375,1403.812500 775.996155,1416.587524 816.853210,1456.278809 
	C817.570007,1456.975342 818.312256,1457.659790 818.936646,1458.435181 
	C840.542053,1485.269775 867.123962,1507.124512 891.619202,1531.065918 
	C899.719238,1538.982910 907.926636,1546.789917 916.063477,1554.669434 
	C937.839783,1575.757324 959.552673,1596.911011 981.385376,1617.940308 
	C1015.450562,1650.751831 1049.712891,1683.359375 1083.644409,1716.307983 
	C1096.990112,1729.266968 1111.806274,1738.621094 1129.750732,1744.767822 
	C1187.189331,1764.442871 1236.817505,1796.893188 1278.010132,1841.596680 
	C1309.226929,1875.474121 1334.417969,1913.395264 1349.484009,1957.258911 
	C1363.150269,1997.046997 1363.178467,2037.699341 1354.875122,2078.570068 
	C1350.076904,2102.187500 1342.579834,2124.929199 1331.644775,2146.443848 
	C1327.466553,2154.664307 1325.596191,2163.151367 1325.651611,2172.403320 
	C1325.988037,2228.724609 1326.091553,2285.047607 1326.217163,2341.369873 
	C1326.226562,2345.602539 1325.801392,2349.836182 1325.594727,2353.755859 
	C1316.832520,2356.268311 999.156372,2356.563721 988.284424,2354.068848 
	C987.656006,2349.645020 986.627686,2344.821533 986.343384,2339.954834 
	C985.470032,2325.007812 985.164185,2310.023438 984.097107,2295.092529 
	C983.173157,2282.165527 977.105408,2271.579346 967.143616,2263.401855 
	C928.011169,2231.278320 888.801147,2199.249512 849.620911,2167.184082 
	C794.718506,2122.251465 739.831787,2077.299805 684.909302,2032.391602 
	C649.067078,2003.084717 613.258667,1973.734863 577.230957,1944.657349 
	C570.024780,1938.841309 564.929871,1932.275146 561.367432,1923.548462 
	C530.018921,1846.755981 498.252563,1770.134155 466.599640,1693.466064 
	C435.836456,1618.952759 405.297180,1544.345459 374.154877,1469.990967 
	C364.147491,1446.097534 362.115417,1422.071899 366.362152,1396.682129 
	C377.895599,1327.728027 388.692596,1258.651001 399.804718,1189.626343 
	C409.700195,1128.158936 419.643402,1066.699219 429.534729,1005.231201 
	C438.262207,950.995544 446.766418,896.723083 455.727051,842.526062 
	C460.192688,815.516357 482.353699,795.085754 509.269653,792.111755 
	C538.932617,788.834229 566.348511,803.875061 576.700928,829.692749 
	C578.874939,835.114563 580.179871,841.340881 580.035461,847.150513 
	C579.605835,864.440796 578.381775,881.716736 577.218750,898.981384 
	C576.481201,909.928711 575.154114,920.835388 574.341980,931.778870 
	C571.387024,971.597839 568.581543,1011.427795 565.635315,1051.247437 
	C563.033142,1086.416382 560.332520,1121.578125 557.649475,1156.741089 
	C554.991760,1191.571899 552.301758,1226.400146 549.625671,1261.229614 
	C546.975037,1295.727417 544.335999,1330.226074 541.663147,1364.722168 
	C541.149292,1371.354492 540.438904,1377.971558 539.931702,1384.604370 
	C539.093628,1395.565552 541.714783,1405.622192 547.226929,1415.187866 
	C575.340576,1463.975952 603.286316,1512.860596 631.686646,1562.329102 
z"/>
<path fill="#000000" opacity="1.000000" stroke="none" 
	d="
M1436.266602,2494.000488 
	C1436.266968,2554.591553 1436.266968,2614.182617 1436.266968,2674.721680 
	C1431.558716,2675.131592 1428.026123,2675.707275 1424.493286,2675.708252 
	C1250.176392,2675.752197 1075.859619,2675.747314 901.542725,2675.738525 
	C899.545166,2675.738281 897.544312,2675.670410 895.550903,2675.542236 
	C892.421814,2675.341064 890.642944,2673.650146 890.485779,2670.496826 
	C890.336609,2667.503906 890.281860,2664.502930 890.281311,2661.505615 
	C890.270447,2597.178467 890.262207,2532.851074 890.297791,2468.523926 
	C890.300171,2464.263672 890.656494,2460.003418 890.803223,2456.742432 
	C891.819580,2455.526855 892.000671,2455.229980 892.256348,2455.027100 
	C892.509033,2454.826660 892.823547,2454.634033 893.133545,2454.586670 
	C895.093628,2454.288574 897.059998,2453.794434 899.024231,2453.794189 
	C1075.673828,2453.773682 1252.323364,2453.791016 1428.972900,2453.832520 
	C1430.284302,2453.832764 1431.613403,2454.126709 1432.899292,2454.430908 
	C1433.502808,2454.573486 1434.022949,2455.067871 1435.815063,2456.143799 
	C1436.794556,2467.862549 1436.034790,2480.454102 1436.266602,2494.000488 
z"/>
</svg>