<?xml version="1.0" encoding="UTF-8"?>
<!DOCTYPE svg PUBLIC "-//W3C//DTD SVG 1.1//EN" "http://www.w3.org/Graphics/SVG/1.1/DTD/svg11.dtd">
<svg xmlns="http://www.w3.org/2000/svg" version="1.1" width="207px" height="170px" style="shape-rendering:geometricPrecision; text-rendering:geometricPrecision; image-rendering:optimizeQuality; fill-rule:evenodd; clip-rule:evenodd" xmlns:xlink="http://www.w3.org/1999/xlink">
<g><path style="opacity:1" fill="#fefdfd" d="M -0.5,-0.5 C 68.5,-0.5 137.5,-0.5 206.5,-0.5C 206.5,56.1667 206.5,112.833 206.5,169.5C 137.5,169.5 68.5,169.5 -0.5,169.5C -0.5,112.833 -0.5,56.1667 -0.5,-0.5 Z"/></g>
<g><path style="opacity:1" fill="#ea4536" d="M 155.5,49.5 C 155.833,51.5 156.167,53.5 156.5,55.5C 157.791,55.2627 158.791,55.596 159.5,56.5C 159.297,58.3904 159.963,59.8904 161.5,61C 158.018,61.8127 157.685,63.4794 160.5,66C 159.449,67.3848 158.116,68.3848 156.5,69C 159.006,71.3433 160.839,74.1766 162,77.5C 165.555,79.3986 168.389,81.3986 170.5,83.5C 169.617,84.548 168.95,85.7147 168.5,87C 173.145,97.3836 169.812,102.384 158.5,102C 156.983,103.685 155.316,105.185 153.5,106.5C 154.729,107.281 156.062,107.781 157.5,108C 154.258,108.283 153.924,109.117 156.5,110.5C 153.897,112.969 152.231,115.969 151.5,119.5C 150.069,119.881 149.236,120.881 149,122.5C 148.107,121.289 147.274,121.289 146.5,122.5C 147.376,123.251 148.376,123.751 149.5,124C 148.829,124.986 148.829,126.153 149.5,127.5C 147.284,126.797 145.451,125.464 144,123.5C 143.676,125.569 142.842,125.902 141.5,124.5C 140.808,125.025 140.308,125.692 140,126.5C 139.282,125.549 138.449,125.383 137.5,126C 136.315,127.353 134.981,128.52 133.5,129.5C 135.878,133.462 137.212,137.796 137.5,142.5C 134.967,144.191 132.3,145.691 129.5,147C 127.101,147.711 124.768,147.544 122.5,146.5C 122.167,147 121.833,147.5 121.5,148C 124.026,151.918 124.026,155.752 121.5,159.5C 119.544,157.649 118.544,155.316 118.5,152.5C 117.5,152.5 116.5,152.5 115.5,152.5C 115.665,149.482 115.498,146.482 115,143.5C 114,142.167 113,142.167 112,143.5C 111.349,145.235 111.515,146.902 112.5,148.5C 112,149.5 111.5,150.5 111,151.5C 110.808,149.423 110.308,147.423 109.5,145.5C 107.902,146.485 106.235,146.651 104.5,146C 101.585,144.078 98.5845,142.244 95.5,140.5C 94.5091,138.677 93.1757,137.177 91.5,136C 87.7174,135.469 86.7174,136.969 88.5,140.5C 87.675,141.386 86.675,141.719 85.5,141.5C 85.7852,139.712 85.4519,138.045 84.5,136.5C 83.3769,140.263 81.5435,143.596 79,146.5C 78.6291,137.496 77.2958,137.496 75,146.5C 73.6012,145.773 72.1012,145.273 70.5,145C 69.4267,143.75 69.4267,142.416 70.5,141C 70.1501,139.743 69.4835,139.409 68.5,140C 67.1667,140.667 67.1667,141.333 68.5,142C 67.0692,142.465 65.9025,143.299 65,144.5C 62.5202,149.793 59.6869,154.793 56.5,159.5C 56.1667,159 55.8333,158.5 55.5,158C 56.8966,156.039 57.8966,153.872 58.5,151.5C 56.4689,149.443 56.4689,147.61 58.5,146C 57.0494,146.263 55.7161,146.096 54.5,145.5C 55.376,144.749 56.376,144.249 57.5,144C 53.9529,141.955 53.9529,139.622 57.5,137C 54.9916,138.692 51.9916,139.692 48.5,140C 49.6226,141.044 50.9559,141.71 52.5,142C 49.8836,144.352 48.217,143.852 47.5,140.5C 48.1556,138.547 48.4889,136.547 48.5,134.5C 47.5,134.5 46.5,134.5 45.5,134.5C 45.7612,130.956 44.0945,129.122 40.5,129C 41.4581,127.853 41.1247,126.853 39.5,126C 37.6079,125.027 35.6079,124.36 33.5,124C 34.8602,122.062 34.5268,120.396 32.5,119C 30.2852,117.956 27.9519,117.29 25.5,117C 26.1667,116.333 26.8333,115.667 27.5,115C 26.5769,112.959 26.2436,110.792 26.5,108.5C 25.7659,107.292 25.4326,105.959 25.5,104.5C 24.209,104.737 23.209,104.404 22.5,103.5C 22.9854,101.915 22.3188,100.415 20.5,99C 21.624,98.7508 22.624,98.2508 23.5,97.5C 20.31,94.1814 20.9767,92.0147 25.5,91C 23,87.1667 20.5,83.3333 18,79.5C 17.0228,78.2264 16.1894,78.2264 15.5,79.5C 15.0685,78.2273 13.7352,77.2273 11.5,76.5C 12.5817,75.4062 13.2483,74.0729 13.5,72.5C 9.02284,62.2886 12.3562,57.4553 23.5,58C 25.0175,56.3149 26.6841,54.8149 28.5,53.5C 28.3764,52.8933 28.0431,52.56 27.5,52.5C 27.1667,51.1667 26.8333,49.8333 26.5,48.5C 28.0828,46.3374 29.4161,44.0041 30.5,41.5C 31.0906,40.8485 31.7573,40.1818 32.5,39.5C 32.3764,38.8933 32.0431,38.56 31.5,38.5C 32.648,37.8359 33.9813,37.6692 35.5,38C 34.3774,36.9563 33.0441,36.2896 31.5,36C 34.1667,35.3333 34.1667,34.6667 31.5,34C 32.056,33.6174 32.3893,33.1174 32.5,32.5C 34.3925,33.7017 36.2258,35.035 38,36.5C 38.3242,34.4311 39.1575,34.0977 40.5,35.5C 43.678,34.6561 46.3446,32.9895 48.5,30.5C 42.6103,22.3159 43.9436,16.4825 52.5,13C 55.3471,12.0561 57.8471,12.5561 60,14.5C 60.1488,11.4362 59.6488,8.43618 58.5,5.5C 58.2606,2.05361 59.5939,1.05361 62.5,2.5C 63.3094,4.07092 63.6427,5.73759 63.5,7.5C 64.5,7.5 65.5,7.5 66.5,7.5C 66.0845,11.3751 66.5845,15.0418 68,18.5C 70.5567,16.6067 71.0567,14.2734 69.5,11.5C 70,10.5 70.5,9.5 71,8.5C 71.6667,10.5 72.3333,12.5 73,14.5C 74.3876,13.4464 75.8876,13.2797 77.5,14C 79.9614,16.6603 82.9614,18.4936 86.5,19.5C 87.624,20.914 88.624,22.414 89.5,24C 93.9226,25.0814 95.2559,23.5814 93.5,19.5C 94.5,19.5 95.5,19.5 96.5,19.5C 96.2322,21.099 96.5655,22.4324 97.5,23.5C 99.7143,19.3965 101.714,15.0632 103.5,10.5C 104.167,10.5 104.5,10.8333 104.5,11.5C 102.644,21.9799 103.644,22.6466 107.5,13.5C 110.804,13.6777 112.471,15.3443 112.5,18.5C 110.668,19.1405 110.335,20.1405 111.5,21.5C 112.672,21.0814 113.672,20.4147 114.5,19.5C 114.376,18.8933 114.043,18.56 113.5,18.5C 114.105,16.9743 115.271,15.9743 117,15.5C 119.48,10.2074 122.313,5.20737 125.5,0.5C 126.745,1.95536 126.578,3.2887 125,4.5C 124.712,7.53018 124.545,10.3635 124.5,13C 127.844,13.5696 128.177,14.7362 125.5,16.5C 127.688,18.7552 127.354,20.9219 124.5,23C 127.008,21.3083 130.008,20.3083 133.5,20C 128.271,18.0147 128.604,16.8481 134.5,16.5C 134.296,19.5176 133.963,22.5176 133.5,25.5C 134.5,25.5 135.5,25.5 136.5,25.5C 136.284,27.6807 137.117,29.3474 139,30.5C 139.333,30.1667 139.667,29.8333 140,29.5C 140.785,33.5598 143.618,35.7265 148.5,36C 147.14,37.9376 147.473,39.6043 149.5,41C 151.878,41.5112 154.212,42.1779 156.5,43C 155.5,44 154.5,45 153.5,46C 154.823,46.8159 155.489,47.9826 155.5,49.5 Z"/></g>
<g><path style="opacity:1" fill="#ec5546" d="M 105.5,8.5 C 104.596,7.79105 104.263,6.79105 104.5,5.5C 105.077,4.22671 105.743,4.22671 106.5,5.5C 105.873,6.41683 105.539,7.41683 105.5,8.5 Z"/></g>
<g><path style="opacity:1" fill="#f6b3ad" d="M 104.5,5.5 C 104.263,6.79105 104.596,7.79105 105.5,8.5C 105.737,9.79105 105.404,10.791 104.5,11.5C 104.5,10.8333 104.167,10.5 103.5,10.5C 103.216,8.58533 103.549,6.91866 104.5,5.5 Z"/></g>
<g><path style="opacity:1" fill="#f69c94" d="M 112.5,18.5 C 112.833,18.5 113.167,18.5 113.5,18.5C 114.043,18.56 114.376,18.8933 114.5,19.5C 113.672,20.4147 112.672,21.0814 111.5,21.5C 110.335,20.1405 110.668,19.1405 112.5,18.5 Z"/></g>
<g><path style="opacity:1" fill="#f7b1aa" d="M 97.5,23.5 C 96.5655,22.4324 96.2322,21.099 96.5,19.5C 95.5,19.5 94.5,19.5 93.5,19.5C 93.8993,18.4789 95.2326,18.1455 97.5,18.5C 97.5,20.1667 97.5,21.8333 97.5,23.5 Z"/></g>
<g><path style="opacity:1" fill="#f28b82" d="M 32.5,32.5 C 32.3893,33.1174 32.056,33.6174 31.5,34C 34.1667,34.6667 34.1667,35.3333 31.5,36C 33.0441,36.2896 34.3774,36.9563 35.5,38C 33.9813,37.6692 32.648,37.8359 31.5,38.5C 30.3569,38.0919 29.3569,37.4252 28.5,36.5C 29.4095,34.6253 30.7428,33.292 32.5,32.5 Z"/></g>
<g><path style="opacity:1" fill="#f59b92" d="M 31.5,38.5 C 32.0431,38.56 32.3764,38.8933 32.5,39.5C 31.7573,40.1818 31.0906,40.8485 30.5,41.5C 29.234,40.9101 27.9007,40.4101 26.5,40C 28.3817,39.8019 30.0484,39.3019 31.5,38.5 Z"/></g>
<g><path style="opacity:1" fill="#fefaf9" d="M 108.5,88.5 C 109.043,88.44 109.376,88.1067 109.5,87.5C 104.208,86.5052 98.8746,86.1718 93.5,86.5C 92.5166,82.7016 92.1832,78.7016 92.5,74.5C 102.506,74.3335 112.506,74.5002 122.5,75C 124.242,94.4824 115.576,106.816 96.5,112C 76.7735,113.387 64.2735,104.554 59,85.5C 57.6756,66.3147 66.1756,53.8147 84.5,48C 92.6272,46.65 100.294,47.9833 107.5,52C 111.182,53.3198 112.682,55.8198 112,59.5C 109.95,61.8878 107.616,63.8878 105,65.5C 90.6235,56.4342 79.6235,59.4342 72,74.5C 69.9467,88.7502 75.9467,97.0835 90,99.5C 98.461,99.5254 104.628,95.8588 108.5,88.5 Z"/></g>
<g><path style="opacity:1" fill="#f8b1a9" d="M 26.5,48.5 C 26.8333,49.8333 27.1667,51.1667 27.5,52.5C 26.5,52.5 25.5,52.5 24.5,52.5C 24.1568,50.5168 24.8235,49.1834 26.5,48.5 Z"/></g>
<g><path style="opacity:1" fill="#f5a69f" d="M 155.5,49.5 C 156.931,50.7804 157.598,52.4471 157.5,54.5C 158.675,54.281 159.675,54.6143 160.5,55.5C 160.376,56.1067 160.043,56.44 159.5,56.5C 158.791,55.596 157.791,55.2627 156.5,55.5C 156.167,53.5 155.833,51.5 155.5,49.5 Z"/></g>
<g><path style="opacity:1" fill="#f6a79f" d="M 11.5,76.5 C 13.7352,77.2273 15.0685,78.2273 15.5,79.5C 14.4324,80.4345 13.099,80.7678 11.5,80.5C 11.5,79.1667 11.5,77.8333 11.5,76.5 Z"/></g>
<g><path style="opacity:1" fill="#f4a19a" d="M 93.5,86.5 C 98.8746,86.1718 104.208,86.5052 109.5,87.5C 109.376,88.1067 109.043,88.44 108.5,88.5C 103.5,87.8333 98.5,87.1667 93.5,86.5 Z"/></g>
<g><path style="opacity:1" fill="#f6b0aa" d="M 22.5,103.5 C 23.209,104.404 24.209,104.737 25.5,104.5C 25.4326,105.959 25.7659,107.292 26.5,108.5C 24.9519,108.179 24.2852,107.179 24.5,105.5C 23.325,105.719 22.325,105.386 21.5,104.5C 21.6236,103.893 21.9569,103.56 22.5,103.5 Z"/></g>
<g><path style="opacity:1" fill="#ef6f62" d="M 151.5,119.5 C 152.239,119.369 152.906,119.536 153.5,120C 152.376,120.249 151.376,120.749 150.5,121.5C 151.908,122.243 153.241,123.077 154.5,124C 151.859,124.873 150.193,126.04 149.5,127.5C 148.829,126.153 148.829,124.986 149.5,124C 148.376,123.751 147.376,123.251 146.5,122.5C 147.274,121.289 148.107,121.289 149,122.5C 149.236,120.881 150.069,119.881 151.5,119.5 Z"/></g>
<g><path style="opacity:1" fill="#f06d5f" d="M 77.5,147.5 C 78.9697,150.686 78.4697,153.686 76,156.5C 76.5653,153.596 77.0653,150.596 77.5,147.5 Z"/></g>
</svg>
