<?xml version="1.0" encoding="UTF-8"?>
<!DOCTYPE svg PUBLIC "-//W3C//DTD SVG 1.1//EN" "http://www.w3.org/Graphics/SVG/1.1/DTD/svg11.dtd">
<svg xmlns="http://www.w3.org/2000/svg" version="1.1" width="193px" height="172px" style="shape-rendering:geometricPrecision; text-rendering:geometricPrecision; image-rendering:optimizeQuality; fill-rule:evenodd; clip-rule:evenodd" xmlns:xlink="http://www.w3.org/1999/xlink">
<g><path style="opacity:1" fill="#fdfefe" d="M -0.5,-0.5 C 63.8333,-0.5 128.167,-0.5 192.5,-0.5C 192.5,56.8333 192.5,114.167 192.5,171.5C 128.167,171.5 63.8333,171.5 -0.5,171.5C -0.5,114.167 -0.5,56.8333 -0.5,-0.5 Z"/></g>
<g><path style="opacity:1" fill="#29a1f3" d="M 137.5,25.5 C 137.351,26.552 137.517,27.552 138,28.5C 139.104,27.6057 140.27,26.6057 141.5,25.5C 142.612,25.4857 142.779,26.4857 142,28.5C 139.175,29.5842 139.008,30.7508 141.5,32C 140.692,32.3076 140.025,32.8076 139.5,33.5C 140.438,36.1569 142.438,38.4903 145.5,40.5C 149.462,38.1217 153.796,36.7883 158.5,36.5C 159.82,38.6507 161.32,40.6507 163,42.5C 163.777,45.4294 163.61,48.2628 162.5,51C 166.671,49.9379 171.004,49.4379 175.5,49.5C 175.719,50.675 175.386,51.675 174.5,52.5C 172.435,52.953 170.768,53.953 169.5,55.5C 165.69,56.0709 162.024,56.9042 158.5,58C 160.335,60.629 162.669,61.129 165.5,59.5C 166.5,60 167.5,60.5 168.5,61C 166.423,61.1922 164.423,61.6922 162.5,62.5C 163.762,64.5752 163.595,66.5752 162,68.5C 159.519,73.1739 156.353,77.1739 152.5,80.5C 153.748,82.69 155.414,83.0234 157.5,81.5C 158.262,82.6283 158.929,83.7949 159.5,85C 157.5,85.3333 155.5,85.6667 153.5,86C 157.132,86.4874 160.465,87.654 163.5,89.5C 161.5,90.1667 159.5,90.8333 157.5,91.5C 159.564,92.8676 161.898,93.8676 164.5,94.5C 164.043,96.5976 163.043,98.2642 161.5,99.5C 160.417,99.4606 159.417,99.1272 158.5,98.5C 157.167,99.5 157.167,100.5 158.5,101.5C 159.086,101.291 159.586,100.957 160,100.5C 160.377,101.942 161.21,102.942 162.5,103.5C 168.124,105.646 173.458,108.312 178.5,111.5C 177.045,112.745 175.711,112.578 174.5,111C 171.135,110.686 167.969,110.519 165,110.5C 164.418,113.668 163.418,114.001 162,111.5C 159.957,113.967 157.79,113.967 155.5,111.5C 155.167,111.833 154.833,112.167 154.5,112.5C 156.479,114.242 157.979,116.242 159,118.5C 160.085,116.343 161.251,116.176 162.5,118C 161.601,119.236 160.434,120.07 159,120.5C 156.801,119.355 154.635,119.355 152.5,120.5C 150.132,121.872 148.466,123.872 147.5,126.5C 146.094,125.332 144.928,125.665 144,127.5C 143.027,129.392 142.36,131.392 142,133.5C 139.472,132.066 137.638,132.733 136.5,135.5C 135.685,136.429 134.852,137.429 134,138.5C 131.82,137.775 129.986,138.441 128.5,140.5C 124.574,142.049 120.741,143.715 117,145.5C 116.29,144.027 115.124,143.36 113.5,143.5C 113.372,141.91 112.705,140.577 111.5,139.5C 111.593,141.11 111.26,142.776 110.5,144.5C 110.092,143.357 109.425,142.357 108.5,141.5C 105.003,144.083 101.336,146.416 97.5,148.5C 97.3508,150.61 97.3508,152.61 97.5,154.5C 96.8076,153.975 96.3076,153.308 96,152.5C 95.6924,153.308 95.1924,153.975 94.5,154.5C 93.452,153.617 92.2853,152.95 91,152.5C 87.5928,154.667 84.0928,155.667 80.5,155.5C 76.6362,152.954 74.6362,149.288 74.5,144.5C 72.9937,142.599 71.3271,140.932 69.5,139.5C 67.9731,139.427 66.9731,140.094 66.5,141.5C 64.2815,140.391 61.6149,139.057 58.5,137.5C 57.2011,138.09 56.3678,139.09 56,140.5C 55.79,138.942 55.29,137.609 54.5,136.5C 53.9264,135.472 53.593,134.472 53.5,133.5C 52.7492,134.376 52.2492,135.376 52,136.5C 50.841,135.434 50.0076,135.767 49.5,137.5C 48.9033,137.265 48.5699,136.765 48.5,136C 49.4841,134.343 50.4841,132.677 51.5,131C 49.0087,130.374 49.0087,129.541 51.5,128.5C 49.6155,127.803 49.2822,126.803 50.5,125.5C 48.6508,124.407 46.9842,123.074 45.5,121.5C 44.086,122.624 42.586,123.624 41,124.5C 40.6667,124.167 40.3333,123.833 40,123.5C 37.5393,124.218 35.0393,124.885 32.5,125.5C 30.7763,122.947 29.2763,120.28 28,117.5C 27.2419,115.231 27.4086,113.064 28.5,111C 25.7048,111.291 22.8715,111.791 20,112.5C 16.5519,113.061 15.3852,111.894 16.5,109C 18.4357,108.187 20.4357,107.687 22.5,107.5C 22.5,106.5 22.5,105.5 22.5,104.5C 25.8984,104.82 29.2317,104.487 32.5,103.5C 30.5497,101.247 28.2163,100.914 25.5,102.5C 24.5,102 23.5,101.5 22.5,101C 24.6314,100.457 26.6314,99.6236 28.5,98.5C 27.5721,97.2322 27.4054,95.8989 28,94.5C 30.574,92.355 32.4074,89.6883 33.5,86.5C 34.8498,85.0499 36.5165,84.3832 38.5,84.5C 38.5,82.8333 38.5,81.1667 38.5,79.5C 36.5328,79.2606 34.6995,79.5939 33,80.5C 32.51,79.2068 32.3433,77.8734 32.5,76.5C 34.1992,76.6602 35.8659,76.4935 37.5,76C 34.5746,74.6834 31.5746,73.5167 28.5,72.5C 30.1667,71.8333 31.8333,71.1667 33.5,70.5C 34.7383,70.19 34.7383,69.69 33.5,69C 27.36,69.8508 25.6934,67.8508 28.5,63C 30.5,63 32.5,63 34.5,63C 33.8742,62.2496 33.3742,61.4162 33,60.5C 32.2825,61.4506 31.4491,61.6172 30.5,61C 31.8333,60.3333 31.8333,59.6667 30.5,59C 24.2389,57.2104 18.5722,54.377 13.5,50.5C 13.8333,50.1667 14.1667,49.8333 14.5,49.5C 18.3307,51.3516 22.164,52.0183 26,51.5C 26.5823,48.3323 27.5823,47.999 29,50.5C 31.0433,48.033 33.2099,48.033 35.5,50.5C 35.8333,50.1667 36.1667,49.8333 36.5,49.5C 33.7429,47.9124 32.9096,45.579 34,42.5C 35.2988,42.9662 36.7988,42.9662 38.5,42.5C 38.5,41.5 38.5,40.5 38.5,39.5C 41.8595,40.2096 43.6929,38.8762 44,35.5C 45.1475,36.4581 46.1475,36.1247 47,34.5C 47.9734,32.6079 48.6401,30.6079 49,28.5C 51.5283,29.9341 53.3617,29.2675 54.5,26.5C 55.3149,25.5707 56.1482,24.5707 57,23.5C 59.1803,24.2252 61.0136,23.5586 62.5,21.5C 65.2867,21.2204 67.4534,19.887 69,17.5C 70.9376,18.8602 72.6043,18.5268 74,16.5C 74.7096,17.9733 75.8762,18.6399 77.5,18.5C 78.1614,19.7175 78.8281,21.0508 79.5,22.5C 79.4069,20.8905 79.7402,19.2238 80.5,17.5C 81.4687,18.3094 82.3021,19.3094 83,20.5C 86.7461,17.7101 90.5794,15.0434 94.5,12.5C 93.5153,10.9017 93.3486,9.23501 94,7.5C 94.3333,8.16667 94.6667,8.83333 95,9.5C 95.2492,8.37598 95.7492,7.37598 96.5,6.5C 97.6652,7.49114 98.8319,8.49114 100,9.5C 102.693,8.06844 105.527,7.06844 108.5,6.5C 114.062,6.89869 116.562,9.89869 116,15.5C 117.311,18.1354 118.978,20.4687 121,22.5C 122.044,21.3774 122.71,20.0441 123,18.5C 123.667,22.5 124.333,22.5 125,18.5C 125.249,19.624 125.749,20.624 126.5,21.5C 128.711,22.1228 130.711,23.1228 132.5,24.5C 133.799,23.91 134.632,22.91 135,21.5C 135.122,23.437 135.955,24.7703 137.5,25.5 Z"/></g>
<g><path style="opacity:1" fill="#89cbf8" d="M 80.5,17.5 C 79.7402,19.2238 79.4069,20.8905 79.5,22.5C 78.8281,21.0508 78.1614,19.7175 77.5,18.5C 78.221,16.6182 79.221,16.2848 80.5,17.5 Z"/></g>
<g><path style="opacity:1" fill="#72bff7" d="M 62.5,21.5 C 61.0136,23.5586 59.1803,24.2252 57,23.5C 56.1482,24.5707 55.3149,25.5707 54.5,26.5C 54.3832,24.5165 55.0499,22.8498 56.5,21.5C 58.4159,22.2483 60.4159,22.2483 62.5,21.5 Z"/></g>
<g><path style="opacity:1" fill="#67baf6" d="M 141.5,25.5 C 140.27,26.6057 139.104,27.6057 138,28.5C 137.517,27.552 137.351,26.552 137.5,25.5C 137.312,23.8967 137.812,22.5634 139,21.5C 139.608,23.0664 140.442,24.3998 141.5,25.5 Z"/></g>
<g><path style="opacity:1" fill="#4fb0f5" d="M 29.5,42.5 C 32.684,42.3322 33.184,43.6655 31,46.5C 28.988,45.4335 28.488,44.1002 29.5,42.5 Z"/></g>
<g><path style="opacity:1" fill="#fdfefe" d="M 108.5,47.5 C 115.393,46.7635 121.56,48.4302 127,52.5C 130.251,51.7073 133.251,50.374 136,48.5C 136.713,51.4746 135.879,53.9746 133.5,56C 135.5,56 137.5,56 139.5,56C 137.372,59.1301 134.872,61.9634 132,64.5C 130.979,86.8157 120.479,102.649 100.5,112C 86.9616,116.259 73.9616,115.093 61.5,108.5C 60.6143,107.675 60.281,106.675 60.5,105.5C 67.9047,106.295 74.5713,104.461 80.5,100C 74.1315,98.4647 69.7981,94.6313 67.5,88.5C 68.7287,87.7189 70.062,87.2189 71.5,87C 64.6268,83.4229 61.9601,77.9229 63.5,70.5C 64.451,71.3256 65.451,71.4922 66.5,71C 64.9588,69.4207 63.7922,67.5873 63,65.5C 62.1215,60.7133 62.4548,56.0466 64,51.5C 64.3333,51.1667 64.6667,50.8333 65,50.5C 73.4256,60.7959 84.2589,66.4626 97.5,67.5C 96.4924,58.1764 100.159,51.5097 108.5,47.5 Z"/></g>
<g><path style="opacity:1" fill="#65baf6" d="M 33.5,70.5 C 31.8333,71.1667 30.1667,71.8333 28.5,72.5C 24.8037,71.3325 21.1371,70.1658 17.5,69C 22.7688,69.5963 28.1021,70.0963 33.5,70.5 Z"/></g>
<g><path style="opacity:1" fill="#77c1f7" d="M 163.5,89.5 C 166.675,90.8653 170.008,91.8653 173.5,92.5C 173,92.8333 172.5,93.1667 172,93.5C 167.273,92.055 162.44,91.3884 157.5,91.5C 159.5,90.8333 161.5,90.1667 163.5,89.5 Z"/></g>
<g><path style="opacity:1" fill="#b2dbfa" d="M 161.5,99.5 C 162.234,100.708 162.567,102.041 162.5,103.5C 161.21,102.942 160.377,101.942 160,100.5C 159.586,100.957 159.086,101.291 158.5,101.5C 157.167,100.5 157.167,99.5 158.5,98.5C 159.417,99.1272 160.417,99.4606 161.5,99.5 Z"/></g>
<g><path style="opacity:1" fill="#76c2f7" d="M 54.5,136.5 C 53.928,137.973 53.0946,139.307 52,140.5C 51.6232,139.058 50.7899,138.058 49.5,137.5C 50.0076,135.767 50.841,135.434 52,136.5C 52.2492,135.376 52.7492,134.376 53.5,133.5C 53.593,134.472 53.9264,135.472 54.5,136.5 Z"/></g>
<g><path style="opacity:1" fill="#71bff7" d="M 136.5,135.5 C 136.617,137.484 135.95,139.15 134.5,140.5C 132.456,140.675 130.456,140.675 128.5,140.5C 129.986,138.441 131.82,137.775 134,138.5C 134.852,137.429 135.685,136.429 136.5,135.5 Z"/></g>
<g><path style="opacity:1" fill="#8cccf8" d="M 69.5,139.5 C 70.0443,143.64 69.0443,144.307 66.5,141.5C 66.9731,140.094 67.9731,139.427 69.5,139.5 Z"/></g>
<g><path style="opacity:1" fill="#7cc3f7" d="M 113.5,143.5 C 112.849,144.091 112.182,144.757 111.5,145.5C 110.893,145.376 110.56,145.043 110.5,144.5C 111.26,142.776 111.593,141.11 111.5,139.5C 112.705,140.577 113.372,141.91 113.5,143.5 Z"/></g>
</svg>
