<svg width="80" height="55" viewBox="0 0 80 55" fill="none" xmlns="http://www.w3.org/2000/svg">
<path d="M39.2182 25.1132C39.2182 25.1132 27.5757 17.8554 27.5757 9.04238C27.5759 7.48472 28.0608 5.97522 28.9478 4.77053C29.8348 3.56585 31.0693 2.74033 32.4413 2.43433C33.8133 2.12833 35.2382 2.36075 36.4736 3.09206C37.7091 3.82337 38.6789 5.00843 39.2182 6.44577L39.2182 6.44578C39.7574 5.00844 40.7272 3.82338 41.9627 3.09206C43.1982 2.36075 44.623 2.12834 45.9951 2.43433C47.3671 2.74033 48.6015 3.56584 49.4886 4.77053C50.3756 5.97522 50.8604 7.48472 50.8607 9.04238C50.8607 17.8554 39.2182 25.1132 39.2182 25.1132Z" fill="#ED500D"/>
<path d="M15.3746 3.76378C17.7072 3.77057 19.523 5.563 19.7901 8.12058L19.796 8.1601C19.8086 8.2324 19.824 8.34543 19.8301 8.47831C19.8849 10.0287 19.9201 12.2925 19.9538 14.4764C19.9714 15.6421 19.9892 16.8335 20.0101 17.9141C21.6223 17.5714 23.2472 18.0614 24.2352 19.3057C25.7592 21.2182 27.5635 22.8477 29.4777 24.5718C30.4883 25.4817 31.5301 26.4242 32.5203 27.4035C34.9464 29.8054 36.0046 32.6455 35.6644 35.8425C35.5101 37.3058 35.3475 38.766 35.1891 40.2278C34.9527 42.3812 34.7085 44.6087 34.4871 46.798C34.4553 47.1104 34.3608 48.0665 33.5224 48.718C32.6839 49.3694 31.6742 49.2808 31.3406 49.2501L30.477 49.1738C28.17 48.9666 25.784 48.7557 23.4475 48.6635C22.6485 48.6323 21.501 48.4924 20.8084 47.6518C20.0517 46.7337 20.3144 45.5556 20.4002 45.17C20.7767 43.4792 20.2226 42.2609 18.5524 41.0964C15.8433 39.2073 13.849 37.6377 12.0886 36.0035C10.961 34.9568 10.1368 33.8177 9.61382 32.5643C9.16112 31.4794 8.9342 30.3105 8.92127 29.0462C8.89668 26.166 9.10355 23.3252 9.42295 19.9432L9.50369 19.0893C9.8341 15.59 10.1725 11.9749 10.576 8.41419C10.8949 5.58007 12.7805 3.75537 15.3746 3.76378ZM13.6406 8.57892C13.24 12.1127 12.9012 15.7184 12.5722 19.2041L12.4914 20.058C12.1795 23.3565 11.9794 26.1205 12.0017 28.8857C12.0183 30.8766 12.7518 32.4742 14.3098 33.9188C15.9716 35.4604 17.8712 36.9551 20.4701 38.7658C21.7728 39.6747 22.6726 40.716 23.1598 41.8838C23.6321 43.0157 23.7191 44.2631 23.4185 45.6207C23.4068 45.677 23.3976 45.7225 23.3914 45.7669C23.477 45.7777 23.586 45.7856 23.7299 45.7925C26.1485 45.8872 28.5758 46.1042 30.9229 46.3146L31.4541 46.3629C31.6673 44.2638 31.9008 42.1373 32.1272 40.078C32.2868 38.619 32.4464 37.16 32.6029 35.7023C32.8572 33.3129 32.0823 31.2615 30.2329 29.431C29.2888 28.4945 28.2706 27.5747 27.2836 26.6876C25.3736 24.9651 23.3962 23.1826 21.7348 21.0931C21.2681 20.5067 20.5147 20.644 20.0106 20.9393C19.3937 21.3023 19.4922 22.02 19.6892 22.5597C19.7373 22.6919 19.8003 22.8343 19.8648 22.9889C19.8924 23.0551 19.9189 23.1186 19.9496 23.1837C20.1679 23.5634 23.3515 29.132 25.0259 31.996C25.0857 32.0719 25.1518 32.1711 25.212 32.2984C25.2177 32.3122 25.2235 32.326 25.2293 32.3398C25.5253 33.0493 25.1534 33.8813 24.3793 34.2138C23.6686 34.5209 22.865 34.3014 22.4748 33.7295C22.4379 33.6831 22.3909 33.6213 22.3473 33.5422C21.3861 31.8973 20.0384 29.5629 19.0962 27.9297C18.5569 26.9922 18.0701 26.1465 17.7232 25.5347C17.548 25.2246 17.4053 24.9757 17.3082 24.8019C17.2313 24.6684 17.1575 24.5336 17.0999 24.3956C17.0987 24.3928 17.0987 24.3928 17.0976 24.3901L17.0915 24.3925C17.0616 24.3207 17.0316 24.249 16.9987 24.1784C16.9641 24.0956 16.9265 24.014 16.892 23.9311C16.8482 23.8262 16.8051 23.7146 16.7609 23.6002C16.2829 22.2773 16.3805 21.0075 16.9775 19.9887C16.9327 18.5213 16.9035 16.5676 16.8758 14.6682C16.8442 12.506 16.8083 10.2747 16.7549 8.75278L16.7494 8.72275C16.7396 8.66546 16.7328 8.60696 16.726 8.54846C16.608 7.42938 15.9887 6.64634 15.2198 6.64493C14.0947 6.6347 13.7393 7.69203 13.6406 8.57892Z" fill="#424242"/>
<path d="M64.5949 3.76378C62.2623 3.77057 60.4465 5.563 60.1794 8.12058L60.1734 8.1601C60.1609 8.2324 60.1455 8.34543 60.1394 8.47831C60.0846 10.0287 60.0494 12.2925 60.0157 14.4764C59.9981 15.6421 59.9803 16.8335 59.9594 17.9141C58.3472 17.5714 56.7223 18.0614 55.7343 19.3057C54.2102 21.2182 52.406 22.8477 50.4917 24.5718C49.4812 25.4817 48.4394 26.4242 47.4492 27.4035C45.0231 29.8054 43.9649 32.6455 44.3051 35.8425C44.4594 37.3058 44.622 38.766 44.7804 40.2278C45.0168 42.3812 45.261 44.6087 45.4824 46.798C45.5142 47.1104 45.6087 48.0665 46.4471 48.718C47.2855 49.3694 48.2953 49.2808 48.6289 49.2501L49.4925 49.1738C51.7994 48.9666 54.1855 48.7557 56.522 48.6635C57.321 48.6323 58.4684 48.4924 59.1611 47.6518C59.9178 46.7337 59.6551 45.5556 59.5693 45.17C59.1927 43.4792 59.7469 42.2609 61.4171 41.0964C64.1262 39.2073 66.1205 37.6377 67.8809 36.0035C69.0084 34.9568 69.8327 33.8177 70.3557 32.5643C70.8084 31.4794 71.0353 30.3105 71.0482 29.0462C71.0728 26.166 70.8659 23.3252 70.5465 19.9432L70.4658 19.0893C70.1354 15.59 69.797 11.9749 69.3935 8.41419C69.0746 5.58007 67.189 3.75537 64.5949 3.76378ZM66.3289 8.57892C66.7295 12.1127 67.0683 15.7184 67.3973 19.2041L67.478 20.058C67.79 23.3565 67.9901 26.1205 67.9678 28.8857C67.9512 30.8766 67.2176 32.4742 65.6597 33.9188C63.9978 35.4604 62.0982 36.9551 59.4993 38.7658C58.1966 39.6747 57.2969 40.716 56.8097 41.8838C56.3374 43.0157 56.2504 44.2631 56.551 45.6207C56.5627 45.677 56.5719 45.7225 56.5781 45.7669C56.4925 45.7777 56.3835 45.7856 56.2396 45.7925C53.821 45.8872 51.3937 46.1042 49.0466 46.3146L48.5154 46.3629C48.3021 44.2638 48.0686 42.1373 47.8423 40.078C47.6827 38.619 47.5231 37.16 47.3666 35.7023C47.1123 33.3129 47.8872 31.2615 49.7366 29.431C50.6807 28.4945 51.6989 27.5747 52.6859 26.6876C54.5959 24.9651 56.5733 23.1826 58.2347 21.0931C58.7014 20.5067 59.4548 20.644 59.9589 20.9393C60.5758 21.3023 60.4772 22.02 60.2802 22.5597C60.2321 22.6919 60.1692 22.8343 60.1047 22.9889C60.0771 23.0551 60.0506 23.1186 60.0199 23.1837C59.8015 23.5634 56.618 29.132 54.9436 31.996C54.8837 32.0719 54.8177 32.1711 54.7575 32.2984C54.7517 32.3122 54.746 32.326 54.7402 32.3398C54.4442 33.0493 54.8161 33.8813 55.5902 34.2138C56.3009 34.5209 57.1044 34.3014 57.4946 33.7295C57.5316 33.6831 57.5785 33.6213 57.6222 33.5422C58.5834 31.8973 59.9311 29.5629 60.8733 27.9297C61.4126 26.9922 61.8994 26.1465 62.2463 25.5347C62.4215 25.2246 62.5641 24.9757 62.6613 24.8019C62.7382 24.6684 62.812 24.5336 62.8696 24.3956C62.8708 24.3928 62.8708 24.3928 62.8719 24.3901L62.878 24.3925C62.9079 24.3207 62.9379 24.249 62.9708 24.1784C63.0054 24.0956 63.043 24.014 63.0775 23.9311C63.1213 23.8262 63.1644 23.7146 63.2086 23.6002C63.6865 22.2773 63.589 21.0075 62.992 19.9887C63.0368 18.5213 63.066 16.5676 63.0937 14.6682C63.1253 12.506 63.1611 10.2747 63.2146 8.75278L63.2201 8.72275C63.2299 8.66546 63.2367 8.60696 63.2435 8.54846C63.3615 7.42938 63.9807 6.64634 64.7497 6.64493C65.8748 6.6347 66.2302 7.69203 66.3289 8.57892Z" fill="#424242"/>
</svg>
